<?xml version="1.0" encoding="UTF-8" standalone="no"?>
<!DOCTYPE svg PUBLIC "-//W3C//DTD SVG 1.1//EN"
 "http://www.w3.org/Graphics/SVG/1.1/DTD/svg11.dtd">
<!-- Generated by graphviz version 2.43.0 (0)
 -->
<!-- Title: schema Pages: 1 -->
<svg width="1333pt" height="889pt"
 viewBox="0.00 0.00 1333.00 888.63" xmlns="http://www.w3.org/2000/svg" xmlns:xlink="http://www.w3.org/1999/xlink">
<g id="graph0" class="graph" transform="scale(1 1) rotate(0) translate(4 884.63)">
<title>schema</title>
<polygon fill="#ffffff" stroke="transparent" points="-4,4 -4,-884.63 1329,-884.63 1329,4 -4,4"/>
<!-- projects -->
<g id="node1" class="node">
<title>projects</title>
<polygon fill="#dbe7f3" stroke="transparent" points="1254.5,-123 1254.5,-147 1317.5,-147 1317.5,-123 1254.5,-123"/>
<polygon fill="none" stroke="#1f4e79" points="1254.5,-123 1254.5,-147 1317.5,-147 1317.5,-123 1254.5,-123"/>
<text text-anchor="start" x="1260.5" y="-133.2" font-family="Helvetica,sans-Serif" font-weight="bold" font-size="11.00">projects</text>
<polygon fill="none" stroke="#1f4e79" points="1254.5,-99 1254.5,-123 1283.5,-123 1283.5,-99 1254.5,-99"/>
<text text-anchor="start" x="1260.5" y="-108.2" font-family="Helvetica,sans-Serif" font-size="11.00">id</text>
<polygon fill="none" stroke="#1f4e79" points="1283.5,-99 1283.5,-123 1317.5,-123 1317.5,-99 1283.5,-99"/>
<text text-anchor="start" x="1296.5" y="-108.2" font-family="Helvetica,sans-Serif" font-size="11.00" fill="#777777">PK</text>
</g>
<!-- subprojects -->
<g id="node2" class="node">
<title>subprojects</title>
<polygon fill="#dbe7f3" stroke="transparent" points="1044.5,-93 1044.5,-117 1137.5,-117 1137.5,-93 1044.5,-93"/>
<polygon fill="none" stroke="#1f4e79" points="1044.5,-93 1044.5,-117 1137.5,-117 1137.5,-93 1044.5,-93"/>
<text text-anchor="start" x="1054.5" y="-103.2" font-family="Helvetica,sans-Serif" font-weight="bold" font-size="11.00">subprojects</text>
<polygon fill="none" stroke="#1f4e79" points="1044.5,-69 1044.5,-93 1110.5,-93 1110.5,-69 1044.5,-69"/>
<text text-anchor="start" x="1050.5" y="-78.2" font-family="Helvetica,sans-Serif" font-size="11.00">id</text>
<polygon fill="none" stroke="#1f4e79" points="1110.5,-69 1110.5,-93 1137.5,-93 1137.5,-69 1110.5,-69"/>
<text text-anchor="start" x="1116.5" y="-78.2" font-family="Helvetica,sans-Serif" font-size="11.00" fill="#777777">PK</text>
<polygon fill="none" stroke="#1f4e79" points="1044.5,-45 1044.5,-69 1110.5,-69 1110.5,-45 1044.5,-45"/>
<text text-anchor="start" x="1050.5" y="-54.2" font-family="Helvetica,sans-Serif" font-size="11.00">project_id</text>
<polygon fill="none" stroke="#1f4e79" points="1110.5,-45 1110.5,-69 1137.5,-69 1137.5,-45 1110.5,-45"/>
<text text-anchor="start" x="1117.5" y="-54.2" font-family="Helvetica,sans-Serif" font-size="11.00" fill="#777777">FK</text>
</g>
<!-- subprojects&#45;&gt;projects -->
<g id="edge27" class="edge">
<title>subprojects:e&#45;&gt;projects:w</title>
<path fill="none" stroke="#8a8a8a" stroke-width="0.9" d="M1145.79,-57.32C1194.1,-61.64 1199.34,-108.72 1249.79,-110.92"/>
<polygon fill="#8a8a8a" stroke="#8a8a8a" stroke-width="0.9" points="1145.49,-57.3 1138.64,-53.85 1142,-57.15 1138.5,-57 1138.5,-57 1138.5,-57 1142,-57.15 1138.36,-60.15 1145.49,-57.3 1145.49,-57.3"/>
<polygon fill="#8a8a8a" stroke="#8a8a8a" stroke-width="0.9" points="1252.88,-107.49 1252.72,-114.48 1251.33,-114.45 1251.48,-107.46 1252.88,-107.49"/>
<polyline fill="none" stroke="#8a8a8a" stroke-width="0.9" points="1253.5,-111 1250,-110.92 "/>
</g>
<!-- sites -->
<g id="node3" class="node">
<title>sites</title>
<polygon fill="#dbe7f3" stroke="transparent" points="815,-171 815,-195 927,-195 927,-171 815,-171"/>
<polygon fill="none" stroke="#1f4e79" points="815,-171 815,-195 927,-195 927,-171 815,-171"/>
<text text-anchor="start" x="855.5" y="-181.2" font-family="Helvetica,sans-Serif" font-weight="bold" font-size="11.00">sites</text>
<polygon fill="none" stroke="#1f4e79" points="815,-147 815,-171 900,-171 900,-147 815,-147"/>
<text text-anchor="start" x="821" y="-156.2" font-family="Helvetica,sans-Serif" font-size="11.00">id</text>
<polygon fill="none" stroke="#1f4e79" points="900,-147 900,-171 927,-171 927,-147 900,-147"/>
<text text-anchor="start" x="906" y="-156.2" font-family="Helvetica,sans-Serif" font-size="11.00" fill="#777777">PK</text>
<polygon fill="none" stroke="#1f4e79" points="815,-123 815,-147 900,-147 900,-123 815,-123"/>
<text text-anchor="start" x="821" y="-132.2" font-family="Helvetica,sans-Serif" font-size="11.00">project_id</text>
<polygon fill="none" stroke="#1f4e79" points="900,-123 900,-147 927,-147 927,-123 900,-123"/>
<text text-anchor="start" x="907" y="-132.2" font-family="Helvetica,sans-Serif" font-size="11.00" fill="#777777">FK</text>
<polygon fill="none" stroke="#1f4e79" points="815,-99 815,-123 900,-123 900,-99 815,-99"/>
<text text-anchor="start" x="821" y="-108.2" font-family="Helvetica,sans-Serif" font-size="11.00">subproject_id</text>
<polygon fill="none" stroke="#1f4e79" points="900,-99 900,-123 927,-123 927,-99 900,-99"/>
<text text-anchor="start" x="907" y="-108.2" font-family="Helvetica,sans-Serif" font-size="11.00" fill="#777777">FK</text>
</g>
<!-- sites&#45;&gt;projects -->
<g id="edge23" class="edge">
<title>sites:e&#45;&gt;projects:w</title>
<path fill="none" stroke="#8a8a8a" stroke-width="0.9" d="M935.21,-135.02C1025.75,-135.59 1051.61,-146.62 1145,-136 1190.9,-130.78 1202.53,-113.52 1244.14,-111.25"/>
<polygon fill="#8a8a8a" stroke="#8a8a8a" stroke-width="0.9" points="935,-135.02 928.01,-131.85 931.5,-135.01 928,-135 928,-135 928,-135 931.5,-135.01 927.99,-138.15 935,-135.02 935,-135.02"/>
<polygon fill="#8a8a8a" stroke="#8a8a8a" stroke-width="0.9" points="1252.71,-107.52 1252.89,-114.52 1251.49,-114.55 1251.31,-107.56 1252.71,-107.52"/>
<polyline fill="none" stroke="#8a8a8a" stroke-width="0.9" points="1253.5,-111 1250,-111.09 "/>
<ellipse fill="none" stroke="#8a8a8a" stroke-width="0.9" cx="1247.2" cy="-111.17" rx="2.8" ry="2.8"/>
</g>
<!-- sites&#45;&gt;subprojects -->
<g id="edge24" class="edge">
<title>sites:e&#45;&gt;subprojects:w</title>
<path fill="none" stroke="#8a8a8a" stroke-width="0.9" d="M935.18,-110.81C979,-108.42 991.39,-84.41 1034.2,-81.33"/>
<polygon fill="#8a8a8a" stroke="#8a8a8a" stroke-width="0.9" points="935,-110.81 927.92,-107.85 931.5,-110.91 928,-111 928,-111 928,-111 931.5,-110.91 928.08,-114.15 935,-110.81 935,-110.81"/>
<polygon fill="#8a8a8a" stroke="#8a8a8a" stroke-width="0.9" points="1042.68,-77.53 1042.92,-84.52 1041.52,-84.57 1041.28,-77.58 1042.68,-77.53"/>
<polyline fill="none" stroke="#8a8a8a" stroke-width="0.9" points="1043.5,-81 1040,-81.12 "/>
<ellipse fill="none" stroke="#8a8a8a" stroke-width="0.9" cx="1037.2" cy="-81.22" rx="2.8" ry="2.8"/>
</g>
<!-- site_parameters -->
<g id="node4" class="node">
<title>site_parameters</title>
<polygon fill="#dbe7f3" stroke="transparent" points="541.5,-568 541.5,-592 698.5,-592 698.5,-568 541.5,-568"/>
<polygon fill="none" stroke="#1f4e79" points="541.5,-568 541.5,-592 698.5,-592 698.5,-568 541.5,-568"/>
<text text-anchor="start" x="570" y="-578.2" font-family="Helvetica,sans-Serif" font-weight="bold" font-size="11.00">site_parameters</text>
<polygon fill="none" stroke="#1f4e79" points="541.5,-544 541.5,-568 671.5,-568 671.5,-544 541.5,-544"/>
<text text-anchor="start" x="547.5" y="-553.2" font-family="Helvetica,sans-Serif" font-size="11.00">id</text>
<polygon fill="none" stroke="#1f4e79" points="671.5,-544 671.5,-568 698.5,-568 698.5,-544 671.5,-544"/>
<text text-anchor="start" x="677.5" y="-553.2" font-family="Helvetica,sans-Serif" font-size="11.00" fill="#777777">PK</text>
<polygon fill="none" stroke="#1f4e79" points="541.5,-520 541.5,-544 671.5,-544 671.5,-520 541.5,-520"/>
<text text-anchor="start" x="547.5" y="-529.2" font-family="Helvetica,sans-Serif" font-size="11.00">site_id</text>
<polygon fill="none" stroke="#1f4e79" points="671.5,-520 671.5,-544 698.5,-544 698.5,-520 671.5,-520"/>
<text text-anchor="start" x="678.5" y="-529.2" font-family="Helvetica,sans-Serif" font-size="11.00" fill="#777777">FK</text>
<polygon fill="none" stroke="#1f4e79" points="541.5,-496 541.5,-520 671.5,-520 671.5,-496 541.5,-496"/>
<text text-anchor="start" x="547.5" y="-505.2" font-family="Helvetica,sans-Serif" font-size="11.00">parameter_id</text>
<polygon fill="none" stroke="#1f4e79" points="671.5,-496 671.5,-520 698.5,-520 698.5,-496 671.5,-496"/>
<text text-anchor="start" x="678.5" y="-505.2" font-family="Helvetica,sans-Serif" font-size="11.00" fill="#777777">FK</text>
<polygon fill="none" stroke="#1f4e79" points="541.5,-472 541.5,-496 671.5,-496 671.5,-472 541.5,-472"/>
<text text-anchor="start" x="547.5" y="-481.2" font-family="Helvetica,sans-Serif" font-size="11.00">instrument_sensor_id</text>
<polygon fill="none" stroke="#1f4e79" points="671.5,-472 671.5,-496 698.5,-496 698.5,-472 671.5,-472"/>
<text text-anchor="start" x="678.5" y="-481.2" font-family="Helvetica,sans-Serif" font-size="11.00" fill="#777777">FK</text>
</g>
<!-- site_parameters&#45;&gt;sites -->
<g id="edge22" class="edge">
<title>site_parameters:e&#45;&gt;sites:w</title>
<path fill="none" stroke="#8a8a8a" stroke-width="0.9" d="M706.86,-531.76C864.95,-521.24 646.59,-164.64 810.07,-159.07"/>
<polygon fill="#8a8a8a" stroke="#8a8a8a" stroke-width="0.9" points="706.5,-531.77 699.4,-528.85 703,-531.89 699.5,-532 699.5,-532 699.5,-532 703,-531.89 699.6,-535.15 706.5,-531.77 706.5,-531.77"/>
<polygon fill="#8a8a8a" stroke="#8a8a8a" stroke-width="0.9" points="813.24,-155.51 813.36,-162.51 811.96,-162.53 811.84,-155.54 813.24,-155.51"/>
<polyline fill="none" stroke="#8a8a8a" stroke-width="0.9" points="814,-159 810.5,-159.06 "/>
</g>
<!-- parameters -->
<g id="node5" class="node">
<title>parameters</title>
<polygon fill="#dbe7f3" stroke="transparent" points="829,-436 829,-460 913,-460 913,-436 829,-436"/>
<polygon fill="none" stroke="#1f4e79" points="829,-436 829,-460 913,-460 913,-436 829,-436"/>
<text text-anchor="start" x="835" y="-446.2" font-family="Helvetica,sans-Serif" font-weight="bold" font-size="11.00">parameters</text>
<polygon fill="none" stroke="#1f4e79" points="829,-412 829,-436 868,-436 868,-412 829,-412"/>
<text text-anchor="start" x="835" y="-421.2" font-family="Helvetica,sans-Serif" font-size="11.00">id</text>
<polygon fill="none" stroke="#1f4e79" points="868,-412 868,-436 913,-436 913,-412 868,-412"/>
<text text-anchor="start" x="892" y="-421.2" font-family="Helvetica,sans-Serif" font-size="11.00" fill="#777777">PK</text>
</g>
<!-- site_parameters&#45;&gt;parameters -->
<g id="edge21" class="edge">
<title>site_parameters:e&#45;&gt;parameters:w</title>
<path fill="none" stroke="#8a8a8a" stroke-width="0.9" d="M706.79,-507.66C766.06,-501.99 762.47,-427.01 824.23,-424.09"/>
<polygon fill="#8a8a8a" stroke="#8a8a8a" stroke-width="0.9" points="706.49,-507.68 699.35,-504.85 703,-507.84 699.5,-508 699.5,-508 699.5,-508 703,-507.84 699.65,-511.15 706.49,-507.68 706.49,-507.68"/>
<polygon fill="#8a8a8a" stroke="#8a8a8a" stroke-width="0.9" points="827.22,-420.52 827.38,-427.52 825.98,-427.55 825.82,-420.55 827.22,-420.52"/>
<polyline fill="none" stroke="#8a8a8a" stroke-width="0.9" points="828,-424 824.5,-424.08 "/>
</g>
<!-- sensors -->
<g id="node10" class="node">
<title>sensors</title>
<polygon fill="#dbe7f3" stroke="transparent" points="841,-731 841,-755 902,-755 902,-731 841,-731"/>
<polygon fill="none" stroke="#1f4e79" points="841,-731 841,-755 902,-755 902,-731 841,-731"/>
<text text-anchor="start" x="847" y="-741.2" font-family="Helvetica,sans-Serif" font-weight="bold" font-size="11.00">sensors</text>
<polygon fill="none" stroke="#1f4e79" points="841,-707 841,-731 869,-731 869,-707 841,-707"/>
<text text-anchor="start" x="847" y="-716.2" font-family="Helvetica,sans-Serif" font-size="11.00">id</text>
<polygon fill="none" stroke="#1f4e79" points="869,-707 869,-731 902,-731 902,-707 869,-707"/>
<text text-anchor="start" x="881" y="-716.2" font-family="Helvetica,sans-Serif" font-size="11.00" fill="#777777">PK</text>
</g>
<!-- site_parameters&#45;&gt;sensors -->
<g id="edge20" class="edge">
<title>site_parameters:e&#45;&gt;sensors:w</title>
<path fill="none" stroke="#8a8a8a" stroke-width="0.9" d="M706.71,-484.29C814.05,-493.29 725.92,-706.83 830.7,-718.5"/>
<polygon fill="#8a8a8a" stroke="#8a8a8a" stroke-width="0.9" points="706.49,-484.28 699.63,-480.85 703,-484.14 699.5,-484 699.5,-484 699.5,-484 703,-484.14 699.37,-487.15 706.49,-484.28 706.49,-484.28"/>
<polygon fill="#8a8a8a" stroke="#8a8a8a" stroke-width="0.9" points="839.49,-715.47 839.11,-722.46 837.72,-722.38 838.09,-715.39 839.49,-715.47"/>
<polyline fill="none" stroke="#8a8a8a" stroke-width="0.9" points="840,-719 836.5,-718.81 "/>
<ellipse fill="none" stroke="#8a8a8a" stroke-width="0.9" cx="833.71" cy="-718.66" rx="2.8" ry="2.8"/>
</g>
<!-- data_streams -->
<g id="node6" class="node">
<title>data_streams</title>
<polygon fill="#dbe7f3" stroke="transparent" points="286,-696 286,-720 424,-720 424,-696 286,-696"/>
<polygon fill="none" stroke="#1f4e79" points="286,-696 286,-720 424,-720 424,-696 286,-696"/>
<text text-anchor="start" x="313" y="-706.2" font-family="Helvetica,sans-Serif" font-weight="bold" font-size="11.00">data_streams</text>
<polygon fill="none" stroke="#1f4e79" points="286,-672 286,-696 397,-696 397,-672 286,-672"/>
<text text-anchor="start" x="292" y="-681.2" font-family="Helvetica,sans-Serif" font-size="11.00">id</text>
<polygon fill="none" stroke="#1f4e79" points="397,-672 397,-696 424,-696 424,-672 397,-672"/>
<text text-anchor="start" x="403" y="-681.2" font-family="Helvetica,sans-Serif" font-size="11.00" fill="#777777">PK</text>
<polygon fill="none" stroke="#1f4e79" points="286,-648 286,-672 397,-672 397,-648 286,-648"/>
<text text-anchor="start" x="292" y="-657.2" font-family="Helvetica,sans-Serif" font-size="11.00">site_parameter_id</text>
<polygon fill="none" stroke="#1f4e79" points="397,-648 397,-672 424,-672 424,-648 397,-648"/>
<text text-anchor="start" x="404" y="-657.2" font-family="Helvetica,sans-Serif" font-size="11.00" fill="#777777">FK</text>
<polygon fill="none" stroke="#1f4e79" points="286,-624 286,-648 397,-648 397,-624 286,-624"/>
<text text-anchor="start" x="292" y="-633.2" font-family="Helvetica,sans-Serif" font-size="11.00">sensor_id</text>
<polygon fill="none" stroke="#1f4e79" points="397,-624 397,-648 424,-648 424,-624 397,-624"/>
<text text-anchor="start" x="404" y="-633.2" font-family="Helvetica,sans-Serif" font-size="11.00" fill="#777777">FK</text>
<polygon fill="none" stroke="#1f4e79" points="286,-600 286,-624 397,-624 397,-600 286,-600"/>
<text text-anchor="start" x="292" y="-609.2" font-family="Helvetica,sans-Serif" font-size="11.00">pairing_plan_id</text>
<polygon fill="none" stroke="#1f4e79" points="397,-600 397,-624 424,-624 424,-600 397,-600"/>
<text text-anchor="start" x="404" y="-609.2" font-family="Helvetica,sans-Serif" font-size="11.00" fill="#777777">FK</text>
</g>
<!-- data_streams&#45;&gt;site_parameters -->
<g id="edge3" class="edge">
<title>data_streams:e&#45;&gt;site_parameters:w</title>
<path fill="none" stroke="#8a8a8a" stroke-width="0.9" d="M432.32,-659.58C489.58,-652.77 475.61,-565.2 531.35,-556.67"/>
<polygon fill="#8a8a8a" stroke="#8a8a8a" stroke-width="0.9" points="431.99,-659.6 424.82,-656.86 428.49,-659.8 425,-660 425,-660 425,-660 428.49,-659.8 425.18,-663.14 431.99,-659.6 431.99,-659.6"/>
<polygon fill="#8a8a8a" stroke="#8a8a8a" stroke-width="0.9" points="539.55,-552.56 540.06,-559.54 538.66,-559.64 538.15,-552.66 539.55,-552.56"/>
<polyline fill="none" stroke="#8a8a8a" stroke-width="0.9" points="540.5,-556 537.01,-556.25 "/>
<ellipse fill="none" stroke="#8a8a8a" stroke-width="0.9" cx="534.22" cy="-556.46" rx="2.8" ry="2.8"/>
</g>
<!-- data_streams&#45;&gt;sensors -->
<g id="edge2" class="edge">
<title>data_streams:e&#45;&gt;sensors:w</title>
<path fill="none" stroke="#8a8a8a" stroke-width="0.9" d="M432.28,-636.26C528.92,-643.49 443.28,-798.32 533,-854 598.33,-894.54 635.02,-883.56 706,-854 781,-822.77 757.53,-726.9 830.6,-719.46"/>
<polygon fill="#8a8a8a" stroke="#8a8a8a" stroke-width="0.9" points="432,-636.25 425.11,-632.85 428.5,-636.13 425,-636 425,-636 425,-636 428.5,-636.13 424.89,-639.15 432,-636.25 432,-636.25"/>
<polygon fill="#8a8a8a" stroke="#8a8a8a" stroke-width="0.9" points="839.13,-715.54 839.47,-722.53 838.07,-722.6 837.73,-715.61 839.13,-715.54"/>
<polyline fill="none" stroke="#8a8a8a" stroke-width="0.9" points="840,-719 836.5,-719.17 "/>
<ellipse fill="none" stroke="#8a8a8a" stroke-width="0.9" cx="833.71" cy="-719.31" rx="2.8" ry="2.8"/>
</g>
<!-- readings -->
<g id="node7" class="node">
<title>readings</title>
<polygon fill="#dbe7f3" stroke="transparent" points="8.5,-518 8.5,-542 169.5,-542 169.5,-518 8.5,-518"/>
<polygon fill="none" stroke="#1f4e79" points="8.5,-518 8.5,-542 169.5,-542 169.5,-518 8.5,-518"/>
<text text-anchor="start" x="62" y="-528.2" font-family="Helvetica,sans-Serif" font-weight="bold" font-size="11.00">readings</text>
<polygon fill="none" stroke="#1f4e79" points="8.5,-494 8.5,-518 125.5,-518 125.5,-494 8.5,-494"/>
<text text-anchor="start" x="14.5" y="-503.2" font-family="Helvetica,sans-Serif" font-size="11.00">stream_id</text>
<polygon fill="none" stroke="#1f4e79" points="125.5,-494 125.5,-518 169.5,-518 169.5,-494 125.5,-494"/>
<text text-anchor="start" x="131.5" y="-503.2" font-family="Helvetica,sans-Serif" font-size="11.00" fill="#777777">PK,FK</text>
<polygon fill="none" stroke="#1f4e79" points="8.5,-470 8.5,-494 125.5,-494 125.5,-470 8.5,-470"/>
<text text-anchor="start" x="14.5" y="-479.2" font-family="Helvetica,sans-Serif" font-size="11.00">time</text>
<polygon fill="none" stroke="#1f4e79" points="125.5,-470 125.5,-494 169.5,-494 169.5,-470 125.5,-470"/>
<text text-anchor="start" x="148.5" y="-479.2" font-family="Helvetica,sans-Serif" font-size="11.00" fill="#777777">PK</text>
<polygon fill="none" stroke="#1f4e79" points="8.5,-446 8.5,-470 125.5,-470 125.5,-446 8.5,-446"/>
<text text-anchor="start" x="14.5" y="-455.2" font-family="Helvetica,sans-Serif" font-size="11.00">replicate_index</text>
<polygon fill="none" stroke="#1f4e79" points="125.5,-446 125.5,-470 169.5,-470 169.5,-446 125.5,-446"/>
<text text-anchor="start" x="148.5" y="-455.2" font-family="Helvetica,sans-Serif" font-size="11.00" fill="#777777">PK</text>
<polygon fill="none" stroke="#1f4e79" points="8.5,-422 8.5,-446 125.5,-446 125.5,-422 8.5,-422"/>
<text text-anchor="start" x="14.5" y="-431.2" font-family="Helvetica,sans-Serif" font-size="11.00">site_id</text>
<polygon fill="none" stroke="#1f4e79" points="125.5,-422 125.5,-446 169.5,-446 169.5,-422 125.5,-422"/>
<text text-anchor="start" x="149.5" y="-431.2" font-family="Helvetica,sans-Serif" font-size="11.00" fill="#777777">FK</text>
<polygon fill="none" stroke="#1f4e79" points="8.5,-398 8.5,-422 125.5,-422 125.5,-398 8.5,-398"/>
<text text-anchor="start" x="14.5" y="-407.2" font-family="Helvetica,sans-Serif" font-size="11.00">parameter_id</text>
<polygon fill="none" stroke="#1f4e79" points="125.5,-398 125.5,-422 169.5,-422 169.5,-398 125.5,-398"/>
<text text-anchor="start" x="149.5" y="-407.2" font-family="Helvetica,sans-Serif" font-size="11.00" fill="#777777">FK</text>
<polygon fill="none" stroke="#1f4e79" points="8.5,-374 8.5,-398 125.5,-398 125.5,-374 8.5,-374"/>
<text text-anchor="start" x="14.5" y="-383.2" font-family="Helvetica,sans-Serif" font-size="11.00">sensor_id</text>
<polygon fill="none" stroke="#1f4e79" points="125.5,-374 125.5,-398 169.5,-398 169.5,-374 125.5,-374"/>
<text text-anchor="start" x="149.5" y="-383.2" font-family="Helvetica,sans-Serif" font-size="11.00" fill="#777777">FK</text>
<polygon fill="none" stroke="#1f4e79" points="8.5,-350 8.5,-374 125.5,-374 125.5,-350 8.5,-350"/>
<text text-anchor="start" x="14.5" y="-359.2" font-family="Helvetica,sans-Serif" font-size="11.00">calibration_id</text>
<polygon fill="none" stroke="#1f4e79" points="125.5,-350 125.5,-374 169.5,-374 169.5,-350 125.5,-350"/>
<text text-anchor="start" x="149.5" y="-359.2" font-family="Helvetica,sans-Serif" font-size="11.00" fill="#777777">FK</text>
<polygon fill="none" stroke="#1f4e79" points="8.5,-326 8.5,-350 125.5,-350 125.5,-326 8.5,-326"/>
<text text-anchor="start" x="14.5" y="-335.2" font-family="Helvetica,sans-Serif" font-size="11.00">deployment_id</text>
<polygon fill="none" stroke="#1f4e79" points="125.5,-326 125.5,-350 169.5,-350 169.5,-326 125.5,-326"/>
<text text-anchor="start" x="149.5" y="-335.2" font-family="Helvetica,sans-Serif" font-size="11.00" fill="#777777">FK</text>
<polygon fill="none" stroke="#1f4e79" points="8.5,-302 8.5,-326 125.5,-326 125.5,-302 8.5,-302"/>
<text text-anchor="start" x="14.5" y="-311.2" font-family="Helvetica,sans-Serif" font-size="11.00">sample_id</text>
<polygon fill="none" stroke="#1f4e79" points="125.5,-302 125.5,-326 169.5,-326 169.5,-302 125.5,-302"/>
<text text-anchor="start" x="149.5" y="-311.2" font-family="Helvetica,sans-Serif" font-size="11.00" fill="#777777">FK</text>
<polygon fill="none" stroke="#1f4e79" points="8.5,-278 8.5,-302 125.5,-302 125.5,-278 8.5,-278"/>
<text text-anchor="start" x="14.5" y="-287.2" font-family="Helvetica,sans-Serif" font-size="11.00">standard_curve_id</text>
<polygon fill="none" stroke="#1f4e79" points="125.5,-278 125.5,-302 169.5,-302 169.5,-278 125.5,-278"/>
<text text-anchor="start" x="149.5" y="-287.2" font-family="Helvetica,sans-Serif" font-size="11.00" fill="#777777">FK</text>
<polygon fill="none" stroke="#1f4e79" points="8.5,-254 8.5,-278 125.5,-278 125.5,-254 8.5,-254"/>
<text text-anchor="start" x="14.5" y="-263.2" font-family="Helvetica,sans-Serif" font-size="11.00">collection_event_id</text>
<polygon fill="none" stroke="#1f4e79" points="125.5,-254 125.5,-278 169.5,-278 169.5,-254 125.5,-254"/>
<text text-anchor="start" x="149.5" y="-263.2" font-family="Helvetica,sans-Serif" font-size="11.00" fill="#777777">FK</text>
</g>
<!-- readings&#45;&gt;sites -->
<g id="edge10" class="edge">
<title>readings:e&#45;&gt;sites:w</title>
<path fill="none" stroke="#8a8a8a" stroke-width="0.9" d="M177.62,-434.05C289.65,-435.77 342.81,-476.86 432,-405 541.55,-316.73 418.75,-187.09 533,-105 595.44,-60.14 631.17,-87.33 706,-105 755.07,-116.58 759.9,-154.06 804.8,-158.56"/>
<polygon fill="#8a8a8a" stroke="#8a8a8a" stroke-width="0.9" points="177.5,-434.05 170.52,-430.85 174,-434.03 170.5,-434 170.5,-434 170.5,-434 174,-434.03 170.48,-437.15 177.5,-434.05 177.5,-434.05"/>
<polygon fill="#8a8a8a" stroke="#8a8a8a" stroke-width="0.9" points="813.47,-155.47 813.13,-162.46 811.73,-162.4 812.07,-155.4 813.47,-155.47"/>
<polyline fill="none" stroke="#8a8a8a" stroke-width="0.9" points="814,-159 810.5,-158.83 "/>
<ellipse fill="none" stroke="#8a8a8a" stroke-width="0.9" cx="807.71" cy="-158.7" rx="2.8" ry="2.8"/>
</g>
<!-- readings&#45;&gt;parameters -->
<g id="edge7" class="edge">
<title>readings:e&#45;&gt;parameters:w</title>
<path fill="none" stroke="#8a8a8a" stroke-width="0.9" d="M177.51,-410.23C223,-413.28 229.48,-446.05 278,-456 345.05,-469.74 363.61,-458.76 432,-456 605.33,-449.01 649.87,-424.87 818.81,-424.02"/>
<polygon fill="#8a8a8a" stroke="#8a8a8a" stroke-width="0.9" points="177.5,-410.23 170.6,-406.85 174,-410.11 170.5,-410 170.5,-410 170.5,-410 174,-410.11 170.4,-413.15 177.5,-410.23 177.5,-410.23"/>
<polygon fill="#8a8a8a" stroke="#8a8a8a" stroke-width="0.9" points="827.29,-420.5 827.31,-427.5 825.91,-427.51 825.89,-420.51 827.29,-420.5"/>
<polyline fill="none" stroke="#8a8a8a" stroke-width="0.9" points="828,-424 824.5,-424.01 "/>
<ellipse fill="none" stroke="#8a8a8a" stroke-width="0.9" cx="821.7" cy="-424.02" rx="2.8" ry="2.8"/>
</g>
<!-- readings&#45;&gt;data_streams -->
<g id="edge12" class="edge">
<title>readings:e&#45;&gt;data_streams:w</title>
<path fill="none" stroke="#8a8a8a" stroke-width="0.9" d="M177.6,-506.36C259.66,-515.14 195.23,-679.42 281.33,-683.91"/>
<polygon fill="#8a8a8a" stroke="#8a8a8a" stroke-width="0.9" points="177.49,-506.36 170.66,-502.85 174,-506.18 170.5,-506 170.5,-506 170.5,-506 174,-506.18 170.34,-509.15 177.49,-506.36 177.49,-506.36"/>
<polygon fill="#8a8a8a" stroke="#8a8a8a" stroke-width="0.9" points="284.39,-680.48 284.21,-687.48 282.81,-687.45 282.99,-680.45 284.39,-680.48"/>
<polyline fill="none" stroke="#8a8a8a" stroke-width="0.9" points="285,-684 281.5,-683.91 "/>
</g>
<!-- samples -->
<g id="node8" class="node">
<title>samples</title>
<polygon fill="#dbe7f3" stroke="transparent" points="563.5,-195 563.5,-219 675.5,-219 675.5,-195 563.5,-195"/>
<polygon fill="none" stroke="#1f4e79" points="563.5,-195 563.5,-219 675.5,-219 675.5,-195 563.5,-195"/>
<text text-anchor="start" x="593.5" y="-205.2" font-family="Helvetica,sans-Serif" font-weight="bold" font-size="11.00">samples</text>
<polygon fill="none" stroke="#1f4e79" points="563.5,-171 563.5,-195 648.5,-195 648.5,-171 563.5,-171"/>
<text text-anchor="start" x="569.5" y="-180.2" font-family="Helvetica,sans-Serif" font-size="11.00">id</text>
<polygon fill="none" stroke="#1f4e79" points="648.5,-171 648.5,-195 675.5,-195 675.5,-171 648.5,-171"/>
<text text-anchor="start" x="654.5" y="-180.2" font-family="Helvetica,sans-Serif" font-size="11.00" fill="#777777">PK</text>
<polygon fill="none" stroke="#1f4e79" points="563.5,-147 563.5,-171 648.5,-171 648.5,-147 563.5,-147"/>
<text text-anchor="start" x="569.5" y="-156.2" font-family="Helvetica,sans-Serif" font-size="11.00">site_id</text>
<polygon fill="none" stroke="#1f4e79" points="648.5,-147 648.5,-171 675.5,-171 675.5,-147 648.5,-147"/>
<text text-anchor="start" x="655.5" y="-156.2" font-family="Helvetica,sans-Serif" font-size="11.00" fill="#777777">FK</text>
<polygon fill="none" stroke="#1f4e79" points="563.5,-123 563.5,-147 648.5,-147 648.5,-123 563.5,-123"/>
<text text-anchor="start" x="569.5" y="-132.2" font-family="Helvetica,sans-Serif" font-size="11.00">parameter_id</text>
<polygon fill="none" stroke="#1f4e79" points="648.5,-123 648.5,-147 675.5,-147 675.5,-123 648.5,-123"/>
<text text-anchor="start" x="655.5" y="-132.2" font-family="Helvetica,sans-Serif" font-size="11.00" fill="#777777">FK</text>
</g>
<!-- readings&#45;&gt;samples -->
<g id="edge8" class="edge">
<title>readings:e&#45;&gt;samples:w</title>
<path fill="none" stroke="#8a8a8a" stroke-width="0.9" d="M177.75,-313.67C240.77,-307.66 214.92,-221.7 278,-192 389.66,-139.42 433.82,-180.87 553.38,-182.92"/>
<polygon fill="#8a8a8a" stroke="#8a8a8a" stroke-width="0.9" points="177.49,-313.68 170.36,-310.85 174,-313.84 170.5,-314 170.5,-314 170.5,-314 174,-313.84 170.64,-317.15 177.49,-313.68 177.49,-313.68"/>
<polygon fill="#8a8a8a" stroke="#8a8a8a" stroke-width="0.9" points="561.83,-179.49 561.77,-186.49 560.37,-186.48 560.43,-179.48 561.83,-179.49"/>
<polyline fill="none" stroke="#8a8a8a" stroke-width="0.9" points="562.5,-183 559,-182.97 "/>
<ellipse fill="none" stroke="#8a8a8a" stroke-width="0.9" cx="556.2" cy="-182.95" rx="2.8" ry="2.8"/>
</g>
<!-- collection_events -->
<g id="node9" class="node">
<title>collection_events</title>
<polygon fill="#dbe7f3" stroke="transparent" points="295,-52 295,-76 415,-76 415,-52 295,-52"/>
<polygon fill="none" stroke="#1f4e79" points="295,-52 295,-76 415,-76 415,-52 295,-52"/>
<text text-anchor="start" x="301" y="-62.2" font-family="Helvetica,sans-Serif" font-weight="bold" font-size="11.00">collection_events</text>
<polygon fill="none" stroke="#1f4e79" points="295,-28 295,-52 365,-52 365,-28 295,-28"/>
<text text-anchor="start" x="301" y="-37.2" font-family="Helvetica,sans-Serif" font-size="11.00">id</text>
<polygon fill="none" stroke="#1f4e79" points="365,-28 365,-52 415,-52 415,-28 365,-28"/>
<text text-anchor="start" x="394" y="-37.2" font-family="Helvetica,sans-Serif" font-size="11.00" fill="#777777">PK</text>
<polygon fill="none" stroke="#1f4e79" points="295,-4 295,-28 365,-28 365,-4 295,-4"/>
<text text-anchor="start" x="301" y="-13.2" font-family="Helvetica,sans-Serif" font-size="11.00">site_id</text>
<polygon fill="none" stroke="#1f4e79" points="365,-4 365,-28 415,-28 415,-4 365,-4"/>
<text text-anchor="start" x="395" y="-13.2" font-family="Helvetica,sans-Serif" font-size="11.00" fill="#777777">FK</text>
</g>
<!-- readings&#45;&gt;collection_events -->
<g id="edge5" class="edge">
<title>readings:e&#45;&gt;collection_events:w</title>
<path fill="none" stroke="#8a8a8a" stroke-width="0.9" d="M177.58,-265.69C277.52,-256.67 187.6,-52.5 284.69,-40.55"/>
<polygon fill="#8a8a8a" stroke="#8a8a8a" stroke-width="0.9" points="177.49,-265.7 170.36,-262.85 174,-265.85 170.5,-266 170.5,-266 170.5,-266 174,-265.85 170.64,-269.15 177.49,-265.7 177.49,-265.7"/>
<polygon fill="#8a8a8a" stroke="#8a8a8a" stroke-width="0.9" points="293.1,-36.55 293.51,-43.54 292.11,-43.62 291.7,-36.63 293.1,-36.55"/>
<polyline fill="none" stroke="#8a8a8a" stroke-width="0.9" points="294,-40 290.51,-40.21 "/>
<ellipse fill="none" stroke="#8a8a8a" stroke-width="0.9" cx="287.71" cy="-40.37" rx="2.8" ry="2.8"/>
</g>
<!-- readings&#45;&gt;sensors -->
<g id="edge9" class="edge">
<title>readings:e&#45;&gt;sensors:w</title>
<path fill="none" stroke="#8a8a8a" stroke-width="0.9" d="M177.58,-387.36C227.6,-403.35 409.88,-555.66 432,-582 495.79,-657.95 448.47,-729.11 533,-781 598.53,-821.23 630.91,-797.53 706,-781 766.96,-767.58 773.82,-723.6 830.81,-719.33"/>
<polygon fill="#8a8a8a" stroke="#8a8a8a" stroke-width="0.9" points="177.37,-387.32 171.09,-382.91 173.94,-386.66 170.5,-386 170.5,-386 170.5,-386 173.94,-386.66 169.91,-389.09 177.37,-387.32 177.37,-387.32"/>
<polygon fill="#8a8a8a" stroke="#8a8a8a" stroke-width="0.9" points="839.17,-715.53 839.43,-722.52 838.03,-722.57 837.77,-715.58 839.17,-715.53"/>
<polyline fill="none" stroke="#8a8a8a" stroke-width="0.9" points="840,-719 836.5,-719.13 "/>
<ellipse fill="none" stroke="#8a8a8a" stroke-width="0.9" cx="833.7" cy="-719.23" rx="2.8" ry="2.8"/>
</g>
<!-- sensor_deployments -->
<g id="node11" class="node">
<title>sensor_deployments</title>
<polygon fill="#dbe7f3" stroke="transparent" points="550.5,-352 550.5,-376 689.5,-376 689.5,-352 550.5,-352"/>
<polygon fill="none" stroke="#1f4e79" points="550.5,-352 550.5,-376 689.5,-376 689.5,-352 550.5,-352"/>
<text text-anchor="start" x="556.5" y="-362.2" font-family="Helvetica,sans-Serif" font-weight="bold" font-size="11.00">sensor_deployments</text>
<polygon fill="none" stroke="#1f4e79" points="550.5,-328 550.5,-352 648.5,-352 648.5,-328 550.5,-328"/>
<text text-anchor="start" x="556.5" y="-337.2" font-family="Helvetica,sans-Serif" font-size="11.00">id</text>
<polygon fill="none" stroke="#1f4e79" points="648.5,-328 648.5,-352 689.5,-352 689.5,-328 648.5,-328"/>
<text text-anchor="start" x="668.5" y="-337.2" font-family="Helvetica,sans-Serif" font-size="11.00" fill="#777777">PK</text>
<polygon fill="none" stroke="#1f4e79" points="550.5,-304 550.5,-328 648.5,-328 648.5,-304 550.5,-304"/>
<text text-anchor="start" x="556.5" y="-313.2" font-family="Helvetica,sans-Serif" font-size="11.00">sensor_id</text>
<polygon fill="none" stroke="#1f4e79" points="648.5,-304 648.5,-328 689.5,-328 689.5,-304 648.5,-304"/>
<text text-anchor="start" x="669.5" y="-313.2" font-family="Helvetica,sans-Serif" font-size="11.00" fill="#777777">FK</text>
<polygon fill="none" stroke="#1f4e79" points="550.5,-280 550.5,-304 648.5,-304 648.5,-280 550.5,-280"/>
<text text-anchor="start" x="556.5" y="-289.2" font-family="Helvetica,sans-Serif" font-size="11.00">site_id</text>
<polygon fill="none" stroke="#1f4e79" points="648.5,-280 648.5,-304 689.5,-304 689.5,-280 648.5,-280"/>
<text text-anchor="start" x="669.5" y="-289.2" font-family="Helvetica,sans-Serif" font-size="11.00" fill="#777777">FK</text>
<polygon fill="none" stroke="#1f4e79" points="550.5,-256 550.5,-280 648.5,-280 648.5,-256 550.5,-256"/>
<text text-anchor="start" x="556.5" y="-265.2" font-family="Helvetica,sans-Serif" font-size="11.00">parameter_id</text>
<polygon fill="none" stroke="#1f4e79" points="648.5,-256 648.5,-280 689.5,-280 689.5,-256 648.5,-256"/>
<text text-anchor="start" x="669.5" y="-265.2" font-family="Helvetica,sans-Serif" font-size="11.00" fill="#777777">FK</text>
</g>
<!-- readings&#45;&gt;sensor_deployments -->
<g id="edge6" class="edge">
<title>readings:e&#45;&gt;sensor_deployments:w</title>
<path fill="none" stroke="#8a8a8a" stroke-width="0.9" d="M177.62,-337.68C239.57,-331.79 215.39,-247.66 278,-220 340.61,-192.34 368.9,-193.48 432,-220 497.72,-247.63 477,-331.94 540.03,-339.46"/>
<polygon fill="#8a8a8a" stroke="#8a8a8a" stroke-width="0.9" points="177.49,-337.68 170.36,-334.85 174,-337.84 170.5,-338 170.5,-338 170.5,-338 174,-337.84 170.64,-341.15 177.49,-337.68 177.49,-337.68"/>
<polygon fill="#8a8a8a" stroke="#8a8a8a" stroke-width="0.9" points="549,-336.47 548.6,-343.45 547.2,-343.38 547.6,-336.39 549,-336.47"/>
<polyline fill="none" stroke="#8a8a8a" stroke-width="0.9" points="549.5,-340 546.01,-339.8 "/>
<ellipse fill="none" stroke="#8a8a8a" stroke-width="0.9" cx="543.21" cy="-339.64" rx="2.8" ry="2.8"/>
</g>
<!-- sensor_calibrations -->
<g id="node12" class="node">
<title>sensor_calibrations</title>
<polygon fill="#dbe7f3" stroke="transparent" points="553.5,-701 553.5,-725 685.5,-725 685.5,-701 553.5,-701"/>
<polygon fill="none" stroke="#1f4e79" points="553.5,-701 553.5,-725 685.5,-725 685.5,-701 553.5,-701"/>
<text text-anchor="start" x="559.5" y="-711.2" font-family="Helvetica,sans-Serif" font-weight="bold" font-size="11.00">sensor_calibrations</text>
<polygon fill="none" stroke="#1f4e79" points="553.5,-677 553.5,-701 648.5,-701 648.5,-677 553.5,-677"/>
<text text-anchor="start" x="559.5" y="-686.2" font-family="Helvetica,sans-Serif" font-size="11.00">id</text>
<polygon fill="none" stroke="#1f4e79" points="648.5,-677 648.5,-701 685.5,-701 685.5,-677 648.5,-677"/>
<text text-anchor="start" x="664.5" y="-686.2" font-family="Helvetica,sans-Serif" font-size="11.00" fill="#777777">PK</text>
<polygon fill="none" stroke="#1f4e79" points="553.5,-653 553.5,-677 648.5,-677 648.5,-653 553.5,-653"/>
<text text-anchor="start" x="559.5" y="-662.2" font-family="Helvetica,sans-Serif" font-size="11.00">sensor_id</text>
<polygon fill="none" stroke="#1f4e79" points="648.5,-653 648.5,-677 685.5,-677 685.5,-653 648.5,-653"/>
<text text-anchor="start" x="665.5" y="-662.2" font-family="Helvetica,sans-Serif" font-size="11.00" fill="#777777">FK</text>
<polygon fill="none" stroke="#1f4e79" points="553.5,-629 553.5,-653 648.5,-653 648.5,-629 553.5,-629"/>
<text text-anchor="start" x="559.5" y="-638.2" font-family="Helvetica,sans-Serif" font-size="11.00">parameter_id</text>
<polygon fill="none" stroke="#1f4e79" points="648.5,-629 648.5,-653 685.5,-653 685.5,-629 648.5,-629"/>
<text text-anchor="start" x="665.5" y="-638.2" font-family="Helvetica,sans-Serif" font-size="11.00" fill="#777777">FK</text>
</g>
<!-- readings&#45;&gt;sensor_calibrations -->
<g id="edge4" class="edge">
<title>readings:e&#45;&gt;sensor_calibrations:w</title>
<path fill="none" stroke="#8a8a8a" stroke-width="0.9" d="M177.8,-361.66C231.84,-356.44 221.84,-292.41 278,-272 342.33,-248.63 377.3,-230.87 432,-272 583.63,-386.02 367,-679.05 543.24,-688.75"/>
<polygon fill="#8a8a8a" stroke="#8a8a8a" stroke-width="0.9" points="177.49,-361.68 170.35,-358.85 174,-361.84 170.5,-362 170.5,-362 170.5,-362 174,-361.84 170.65,-365.15 177.49,-361.68 177.49,-361.68"/>
<polygon fill="#8a8a8a" stroke="#8a8a8a" stroke-width="0.9" points="551.89,-685.48 551.71,-692.48 550.31,-692.44 550.49,-685.45 551.89,-685.48"/>
<polyline fill="none" stroke="#8a8a8a" stroke-width="0.9" points="552.5,-689 549,-688.91 "/>
<ellipse fill="none" stroke="#8a8a8a" stroke-width="0.9" cx="546.2" cy="-688.83" rx="2.8" ry="2.8"/>
</g>
<!-- standard_curves -->
<g id="node13" class="node">
<title>standard_curves</title>
<polygon fill="#dbe7f3" stroke="transparent" points="295,-362 295,-386 416,-386 416,-362 295,-362"/>
<polygon fill="none" stroke="#1f4e79" points="295,-362 295,-386 416,-386 416,-362 295,-362"/>
<text text-anchor="start" x="304.5" y="-372.2" font-family="Helvetica,sans-Serif" font-weight="bold" font-size="11.00">standard_curves</text>
<polygon fill="none" stroke="#1f4e79" points="295,-338 295,-362 389,-362 389,-338 295,-338"/>
<text text-anchor="start" x="301" y="-347.2" font-family="Helvetica,sans-Serif" font-size="11.00">id</text>
<polygon fill="none" stroke="#1f4e79" points="389,-338 389,-362 416,-362 416,-338 389,-338"/>
<text text-anchor="start" x="395" y="-347.2" font-family="Helvetica,sans-Serif" font-size="11.00" fill="#777777">PK</text>
<polygon fill="none" stroke="#1f4e79" points="295,-314 295,-338 389,-338 389,-314 295,-314"/>
<text text-anchor="start" x="301" y="-323.2" font-family="Helvetica,sans-Serif" font-size="11.00">sensor_id</text>
<polygon fill="none" stroke="#1f4e79" points="389,-314 389,-338 416,-338 416,-314 389,-314"/>
<text text-anchor="start" x="396" y="-323.2" font-family="Helvetica,sans-Serif" font-size="11.00" fill="#777777">FK</text>
<polygon fill="none" stroke="#1f4e79" points="295,-290 295,-314 389,-314 389,-290 295,-290"/>
<text text-anchor="start" x="301" y="-299.2" font-family="Helvetica,sans-Serif" font-size="11.00">copied_from_id</text>
<polygon fill="none" stroke="#1f4e79" points="389,-290 389,-314 416,-314 416,-290 389,-290"/>
<text text-anchor="start" x="396" y="-299.2" font-family="Helvetica,sans-Serif" font-size="11.00" fill="#777777">FK</text>
</g>
<!-- readings&#45;&gt;standard_curves -->
<g id="edge11" class="edge">
<title>readings:e&#45;&gt;standard_curves:w</title>
<path fill="none" stroke="#8a8a8a" stroke-width="0.9" d="M177.72,-290.29C228.79,-294.57 234.92,-344.12 284.87,-349.52"/>
<polygon fill="#8a8a8a" stroke="#8a8a8a" stroke-width="0.9" points="177.49,-290.29 170.63,-286.85 174,-290.14 170.5,-290 170.5,-290 170.5,-290 174,-290.14 170.37,-293.15 177.49,-290.29 177.49,-290.29"/>
<polygon fill="#8a8a8a" stroke="#8a8a8a" stroke-width="0.9" points="293.48,-346.47 293.12,-353.46 291.72,-353.39 292.09,-346.39 293.48,-346.47"/>
<polyline fill="none" stroke="#8a8a8a" stroke-width="0.9" points="294,-350 290.5,-349.82 "/>
<ellipse fill="none" stroke="#8a8a8a" stroke-width="0.9" cx="287.71" cy="-349.67" rx="2.8" ry="2.8"/>
</g>
<!-- samples&#45;&gt;sites -->
<g id="edge14" class="edge">
<title>samples:e&#45;&gt;sites:w</title>
<path fill="none" stroke="#8a8a8a" stroke-width="0.9" d="M683.79,-159C737.76,-159 754.67,-159 810.28,-159"/>
<polygon fill="#8a8a8a" stroke="#8a8a8a" stroke-width="0.9" points="683.5,-159 676.5,-155.85 680,-159 676.5,-159 676.5,-159 676.5,-159 680,-159 676.5,-162.15 683.5,-159 683.5,-159"/>
<polygon fill="#8a8a8a" stroke="#8a8a8a" stroke-width="0.9" points="813.3,-155.5 813.3,-162.5 811.9,-162.5 811.9,-155.5 813.3,-155.5"/>
<polyline fill="none" stroke="#8a8a8a" stroke-width="0.9" points="814,-159 810.5,-159 "/>
</g>
<!-- samples&#45;&gt;parameters -->
<g id="edge13" class="edge">
<title>samples:e&#45;&gt;parameters:w</title>
<path fill="none" stroke="#8a8a8a" stroke-width="0.9" d="M683.89,-135.26C815.57,-144.98 687.81,-419.12 824.31,-423.94"/>
<polygon fill="#8a8a8a" stroke="#8a8a8a" stroke-width="0.9" points="683.5,-135.25 676.61,-131.85 680,-135.13 676.5,-135 676.5,-135 676.5,-135 680,-135.13 676.39,-138.15 683.5,-135.25 683.5,-135.25"/>
<polygon fill="#8a8a8a" stroke="#8a8a8a" stroke-width="0.9" points="827.36,-420.49 827.24,-427.49 825.84,-427.46 825.96,-420.46 827.36,-420.49"/>
<polyline fill="none" stroke="#8a8a8a" stroke-width="0.9" points="828,-424 824.5,-423.94 "/>
</g>
<!-- collection_events&#45;&gt;sites -->
<g id="edge1" class="edge">
<title>collection_events:e&#45;&gt;sites:w</title>
<path fill="none" stroke="#8a8a8a" stroke-width="0.9" d="M423.14,-15.98C547.56,-15.3 591.25,2.64 706,-53 765.34,-81.77 747.49,-156.02 810.16,-158.91"/>
<polygon fill="#8a8a8a" stroke="#8a8a8a" stroke-width="0.9" points="423,-15.98 415.99,-12.85 419.5,-15.99 416,-16 416,-16 416,-16 419.5,-15.99 416.01,-19.15 423,-15.98 423,-15.98"/>
<polygon fill="#8a8a8a" stroke="#8a8a8a" stroke-width="0.9" points="813.38,-155.49 813.22,-162.48 811.82,-162.45 811.98,-155.45 813.38,-155.49"/>
<polyline fill="none" stroke="#8a8a8a" stroke-width="0.9" points="814,-159 810.5,-158.92 "/>
</g>
<!-- sensor_deployments&#45;&gt;sites -->
<g id="edge19" class="edge">
<title>sensor_deployments:e&#45;&gt;sites:w</title>
<path fill="none" stroke="#8a8a8a" stroke-width="0.9" d="M697.72,-291.62C767.8,-283.94 736.86,-162.87 810.42,-159.09"/>
<polygon fill="#8a8a8a" stroke="#8a8a8a" stroke-width="0.9" points="697.49,-291.63 690.33,-288.85 694,-291.82 690.5,-292 690.5,-292 690.5,-292 694,-291.82 690.67,-295.15 697.49,-291.63 697.49,-291.63"/>
<polygon fill="#8a8a8a" stroke="#8a8a8a" stroke-width="0.9" points="813.21,-155.52 813.39,-162.52 811.99,-162.55 811.81,-155.55 813.21,-155.52"/>
<polyline fill="none" stroke="#8a8a8a" stroke-width="0.9" points="814,-159 810.5,-159.09 "/>
</g>
<!-- sensor_deployments&#45;&gt;parameters -->
<g id="edge17" class="edge">
<title>sensor_deployments:e&#45;&gt;parameters:w</title>
<path fill="none" stroke="#8a8a8a" stroke-width="0.9" d="M697.77,-268.34C779.31,-276.3 739.24,-419.99 824.39,-423.92"/>
<polygon fill="#8a8a8a" stroke="#8a8a8a" stroke-width="0.9" points="697.49,-268.33 690.65,-264.85 694,-268.17 690.5,-268 690.5,-268 690.5,-268 694,-268.17 690.35,-271.15 697.49,-268.33 697.49,-268.33"/>
<polygon fill="#8a8a8a" stroke="#8a8a8a" stroke-width="0.9" points="827.38,-420.48 827.22,-427.48 825.82,-427.45 825.98,-420.45 827.38,-420.48"/>
<polyline fill="none" stroke="#8a8a8a" stroke-width="0.9" points="828,-424 824.5,-423.92 "/>
</g>
<!-- sensor_deployments&#45;&gt;sensors -->
<g id="edge18" class="edge">
<title>sensor_deployments:e&#45;&gt;sensors:w</title>
<path fill="none" stroke="#8a8a8a" stroke-width="0.9" d="M697.57,-316.19C874.57,-326.1 654.22,-714.03 836.46,-718.95"/>
<polygon fill="#8a8a8a" stroke="#8a8a8a" stroke-width="0.9" points="697.5,-316.19 690.59,-312.85 694,-316.1 690.5,-316 690.5,-316 690.5,-316 694,-316.1 690.41,-319.15 697.5,-316.19 697.5,-316.19"/>
<polygon fill="#8a8a8a" stroke="#8a8a8a" stroke-width="0.9" points="839.35,-715.49 839.25,-722.49 837.85,-722.47 837.95,-715.47 839.35,-715.49"/>
<polyline fill="none" stroke="#8a8a8a" stroke-width="0.9" points="840,-719 836.5,-718.95 "/>
</g>
<!-- sensor_calibrations&#45;&gt;parameters -->
<g id="edge15" class="edge">
<title>sensor_calibrations:e&#45;&gt;parameters:w</title>
<path fill="none" stroke="#8a8a8a" stroke-width="0.9" d="M693.64,-640.7C794.96,-632.03 719.86,-435.61 818.89,-424.49"/>
<polygon fill="#8a8a8a" stroke="#8a8a8a" stroke-width="0.9" points="693.49,-640.71 686.37,-637.85 690,-640.85 686.5,-641 686.5,-641 686.5,-641 690,-640.85 686.63,-644.15 693.49,-640.71 693.49,-640.71"/>
<polygon fill="#8a8a8a" stroke="#8a8a8a" stroke-width="0.9" points="827.11,-420.54 827.49,-427.53 826.09,-427.61 825.71,-420.62 827.11,-420.54"/>
<polyline fill="none" stroke="#8a8a8a" stroke-width="0.9" points="828,-424 824.51,-424.19 "/>
<ellipse fill="none" stroke="#8a8a8a" stroke-width="0.9" cx="821.71" cy="-424.34" rx="2.8" ry="2.8"/>
</g>
<!-- sensor_calibrations&#45;&gt;sensors -->
<g id="edge16" class="edge">
<title>sensor_calibrations:e&#45;&gt;sensors:w</title>
<path fill="none" stroke="#8a8a8a" stroke-width="0.9" d="M693.5,-665.17C758.32,-668.47 769.69,-717.24 836.37,-718.95"/>
<polygon fill="#8a8a8a" stroke="#8a8a8a" stroke-width="0.9" points="693.5,-665.17 686.58,-661.85 690,-665.09 686.5,-665 686.5,-665 686.5,-665 690,-665.09 686.42,-668.15 693.5,-665.17 693.5,-665.17"/>
<polygon fill="#8a8a8a" stroke="#8a8a8a" stroke-width="0.9" points="839.34,-715.49 839.26,-722.49 837.86,-722.47 837.94,-715.47 839.34,-715.49"/>
<polyline fill="none" stroke="#8a8a8a" stroke-width="0.9" points="840,-719 836.5,-718.96 "/>
</g>
<!-- standard_curves&#45;&gt;sensors -->
<g id="edge26" class="edge">
<title>standard_curves:e&#45;&gt;sensors:w</title>
<path fill="none" stroke="#8a8a8a" stroke-width="0.9" d="M424.14,-326.14C604.01,-333.62 381.47,-628.79 533,-744 641.02,-826.12 702.03,-720.88 836.41,-719.02"/>
<polygon fill="#8a8a8a" stroke="#8a8a8a" stroke-width="0.9" points="424,-326.14 417.06,-322.85 420.5,-326.07 417,-326 417,-326 417,-326 420.5,-326.07 416.94,-329.15 424,-326.14 424,-326.14"/>
<polygon fill="#8a8a8a" stroke="#8a8a8a" stroke-width="0.9" points="839.28,-715.5 839.32,-722.5 837.92,-722.51 837.88,-715.51 839.28,-715.5"/>
<polyline fill="none" stroke="#8a8a8a" stroke-width="0.9" points="840,-719 836.5,-719.02 "/>
</g>
<!-- standard_curves&#45;&gt;standard_curves -->
<g id="edge25" class="edge">
<title>standard_curves:copied_from_id__l&#45;&gt;standard_curves:id__l</title>
<path fill="none" stroke="#8a8a8a" stroke-width="0.9" d="M308.44,-286.36C279.09,-268.87 290.28,-257 342,-257 395.9,-257 405.78,-301.02 371.65,-331.86"/>
<polygon fill="#8a8a8a" stroke="#8a8a8a" stroke-width="0.9" points="308.73,-286.53 313.31,-292.69 311.79,-288.23 314.85,-289.94 314.85,-289.94 314.85,-289.94 311.79,-288.23 316.38,-287.18 308.73,-286.53 308.73,-286.53"/>
<polygon fill="#8a8a8a" stroke="#8a8a8a" stroke-width="0.9" points="366.97,-340.12 362.58,-334.68 363.67,-333.8 368.06,-339.25 366.97,-340.12"/>
<polyline fill="none" stroke="#8a8a8a" stroke-width="0.9" points="364.23,-337.84 366.96,-335.64 "/>
<ellipse fill="none" stroke="#8a8a8a" stroke-width="0.9" cx="369.14" cy="-333.89" rx="2.8" ry="2.8"/>
</g>
</g>
</svg>
