<?xml version="1.0" encoding="UTF-8" standalone="no"?>
<!DOCTYPE svg PUBLIC "-//W3C//DTD SVG 1.1//EN"
 "http://www.w3.org/Graphics/SVG/1.1/DTD/svg11.dtd">
<!-- Generated by graphviz version 15.1.1 (0)
 -->
<!-- Title: schema Pages: 1 -->
<svg width="1266pt" height="916pt"
 viewBox="0.00 0.00 1266.00 916.00" xmlns="http://www.w3.org/2000/svg" xmlns:xlink="http://www.w3.org/1999/xlink">
<g id="graph0" class="graph" transform="scale(1 1) rotate(0) translate(4 912.05)">
<title>schema</title>
<polygon fill="#ffffff" stroke="none" points="-4,4 -4,-912.05 1262,-912.05 1262,4 -4,4"/>
<!-- projects -->
<g id="node1" class="node">
<title>projects</title>
<polygon fill="#dbe7f3" stroke="none" points="1195.25,-125.25 1195.25,-150.75 1250,-150.75 1250,-125.25 1195.25,-125.25"/>
<polygon fill="none" stroke="#1f4e79" points="1195.25,-125.25 1195.25,-150.75 1250,-150.75 1250,-125.25 1195.25,-125.25"/>
<text xml:space="preserve" text-anchor="start" x="1201.25" y="-135.3" font-family="Helvetica,sans-Serif" font-weight="bold" font-size="11.00">projects</text>
<polygon fill="none" stroke="#1f4e79" points="1195.25,-99.75 1195.25,-125.25 1219.25,-125.25 1219.25,-99.75 1195.25,-99.75"/>
<text xml:space="preserve" text-anchor="start" x="1201.25" y="-108.75" font-family="Helvetica,sans-Serif" font-size="11.00">id</text>
<polygon fill="none" stroke="#1f4e79" points="1219.25,-99.75 1219.25,-125.25 1250,-125.25 1250,-99.75 1219.25,-99.75"/>
<text xml:space="preserve" text-anchor="start" x="1229" y="-108.75" font-family="Helvetica,sans-Serif" font-size="11.00" fill="#777777">PK</text>
</g>
<!-- subprojects -->
<g id="node2" class="node">
<title>subprojects</title>
<polygon fill="#dbe7f3" stroke="none" points="992.75,-95 992.75,-120.5 1078.25,-120.5 1078.25,-95 992.75,-95"/>
<polygon fill="none" stroke="#1f4e79" points="992.75,-95 992.75,-120.5 1078.25,-120.5 1078.25,-95 992.75,-95"/>
<text xml:space="preserve" text-anchor="start" x="1004.38" y="-105.05" font-family="Helvetica,sans-Serif" font-weight="bold" font-size="11.00">subprojects</text>
<polygon fill="none" stroke="#1f4e79" points="992.75,-69.5 992.75,-95 1051.25,-95 1051.25,-69.5 992.75,-69.5"/>
<text xml:space="preserve" text-anchor="start" x="998.75" y="-78.5" font-family="Helvetica,sans-Serif" font-size="11.00">id</text>
<polygon fill="none" stroke="#1f4e79" points="1051.25,-69.5 1051.25,-95 1078.25,-95 1078.25,-69.5 1051.25,-69.5"/>
<text xml:space="preserve" text-anchor="start" x="1057.25" y="-78.5" font-family="Helvetica,sans-Serif" font-size="11.00" fill="#777777">PK</text>
<polygon fill="none" stroke="#1f4e79" points="992.75,-44 992.75,-69.5 1051.25,-69.5 1051.25,-44 992.75,-44"/>
<text xml:space="preserve" text-anchor="start" x="998.75" y="-53" font-family="Helvetica,sans-Serif" font-size="11.00">project_id</text>
<polygon fill="none" stroke="#1f4e79" points="1051.25,-44 1051.25,-69.5 1078.25,-69.5 1078.25,-44 1051.25,-44"/>
<text xml:space="preserve" text-anchor="start" x="1058" y="-53" font-family="Helvetica,sans-Serif" font-size="11.00" fill="#777777">FK</text>
</g>
<!-- subprojects&#45;&gt;projects -->
<g id="edge27" class="edge">
<title>subprojects:e&#45;&gt;projects:w</title>
<path fill="none" stroke="#8a8a8a" stroke-width="0.9" d="M1086.58,-57.08C1135.22,-61.55 1139.82,-110.34 1190.82,-112.43"/>
<polygon fill="#8a8a8a" stroke="#8a8a8a" stroke-width="0.9" points="1086.54,-57.08 1079.69,-53.62 1082.75,-56.91 1079.85,-56.78 1079.85,-56.78 1079.85,-56.78 1082.75,-56.91 1079.41,-59.91 1086.54,-57.08"/>
<polygon fill="#8a8a8a" stroke="#8a8a8a" stroke-width="0.9" points="1193.62,-108.99 1193.48,-115.99 1192.08,-115.96 1192.22,-108.96 1193.62,-108.99"/>
<polyline fill="none" stroke="#8a8a8a" stroke-width="0.9" points="1194.25,-112.5 1190.75,-112.43"/>
</g>
<!-- sites -->
<g id="node3" class="node">
<title>sites</title>
<polygon fill="#dbe7f3" stroke="none" points="773,-175.75 773,-201.25 875.75,-201.25 875.75,-175.75 773,-175.75"/>
<polygon fill="none" stroke="#1f4e79" points="773,-175.75 773,-201.25 875.75,-201.25 875.75,-175.75 773,-175.75"/>
<text xml:space="preserve" text-anchor="start" x="812" y="-185.8" font-family="Helvetica,sans-Serif" font-weight="bold" font-size="11.00">sites</text>
<polygon fill="none" stroke="#1f4e79" points="773,-150.25 773,-175.75 848.75,-175.75 848.75,-150.25 773,-150.25"/>
<text xml:space="preserve" text-anchor="start" x="779" y="-159.25" font-family="Helvetica,sans-Serif" font-size="11.00">id</text>
<polygon fill="none" stroke="#1f4e79" points="848.75,-150.25 848.75,-175.75 875.75,-175.75 875.75,-150.25 848.75,-150.25"/>
<text xml:space="preserve" text-anchor="start" x="854.75" y="-159.25" font-family="Helvetica,sans-Serif" font-size="11.00" fill="#777777">PK</text>
<polygon fill="none" stroke="#1f4e79" points="773,-124.75 773,-150.25 848.75,-150.25 848.75,-124.75 773,-124.75"/>
<text xml:space="preserve" text-anchor="start" x="779" y="-133.75" font-family="Helvetica,sans-Serif" font-size="11.00">project_id</text>
<polygon fill="none" stroke="#1f4e79" points="848.75,-124.75 848.75,-150.25 875.75,-150.25 875.75,-124.75 848.75,-124.75"/>
<text xml:space="preserve" text-anchor="start" x="855.5" y="-133.75" font-family="Helvetica,sans-Serif" font-size="11.00" fill="#777777">FK</text>
<polygon fill="none" stroke="#1f4e79" points="773,-99.25 773,-124.75 848.75,-124.75 848.75,-99.25 773,-99.25"/>
<text xml:space="preserve" text-anchor="start" x="779" y="-108.25" font-family="Helvetica,sans-Serif" font-size="11.00">subproject_id</text>
<polygon fill="none" stroke="#1f4e79" points="848.75,-99.25 848.75,-124.75 875.75,-124.75 875.75,-99.25 848.75,-99.25"/>
<text xml:space="preserve" text-anchor="start" x="855.5" y="-108.25" font-family="Helvetica,sans-Serif" font-size="11.00" fill="#777777">FK</text>
</g>
<!-- sites&#45;&gt;projects -->
<g id="edge23" class="edge">
<title>sites:e&#45;&gt;projects:w</title>
<path fill="none" stroke="#8a8a8a" stroke-width="0.9" d="M883.97,-137.53C971.18,-138.17 996.26,-150.23 1086.25,-139.25 1131.89,-133.68 1143.27,-115.35 1184.38,-112.8"/>
<polygon fill="#8a8a8a" stroke="#8a8a8a" stroke-width="0.9" points="884.05,-137.53 877.06,-134.35 880.25,-137.51 877.35,-137.5 877.35,-137.5 877.35,-137.5 880.25,-137.51 877.04,-140.65 884.05,-137.53"/>
<polygon fill="#8a8a8a" stroke="#8a8a8a" stroke-width="0.9" points="1193.45,-109.02 1193.66,-116.02 1192.26,-116.06 1192.05,-109.06 1193.45,-109.02"/>
<polyline fill="none" stroke="#8a8a8a" stroke-width="0.9" points="1194.25,-112.5 1190.75,-112.6"/>
<ellipse fill="none" stroke="#8a8a8a" stroke-width="0.9" cx="1187.5" cy="-112.7" rx="2.8" ry="2.8"/>
</g>
<!-- sites&#45;&gt;subprojects -->
<g id="edge24" class="edge">
<title>sites:e&#45;&gt;subprojects:w</title>
<path fill="none" stroke="#8a8a8a" stroke-width="0.9" d="M883.9,-111.81C927.33,-109.45 939.77,-85.83 981.96,-82.61"/>
<polygon fill="#8a8a8a" stroke="#8a8a8a" stroke-width="0.9" points="884.05,-111.81 876.97,-108.84 880.25,-111.91 877.35,-111.98 877.35,-111.98 877.35,-111.98 880.25,-111.91 877.13,-115.14 884.05,-111.81"/>
<polygon fill="#8a8a8a" stroke="#8a8a8a" stroke-width="0.9" points="990.92,-78.78 991.18,-85.77 989.78,-85.83 989.52,-78.83 990.92,-78.78"/>
<polyline fill="none" stroke="#8a8a8a" stroke-width="0.9" points="991.75,-82.25 988.25,-82.38"/>
<ellipse fill="none" stroke="#8a8a8a" stroke-width="0.9" cx="985" cy="-82.5" rx="2.8" ry="2.8"/>
</g>
<!-- site_parameters -->
<g id="node4" class="node">
<title>site_parameters</title>
<polygon fill="#dbe7f3" stroke="none" points="514.25,-589.5 514.25,-615 656,-615 656,-589.5 514.25,-589.5"/>
<polygon fill="none" stroke="#1f4e79" points="514.25,-589.5 514.25,-615 656,-615 656,-589.5 514.25,-589.5"/>
<text xml:space="preserve" text-anchor="start" x="543.12" y="-599.55" font-family="Helvetica,sans-Serif" font-weight="bold" font-size="11.00">site_parameters</text>
<polygon fill="none" stroke="#1f4e79" points="514.25,-564 514.25,-589.5 629,-589.5 629,-564 514.25,-564"/>
<text xml:space="preserve" text-anchor="start" x="520.25" y="-573" font-family="Helvetica,sans-Serif" font-size="11.00">id</text>
<polygon fill="none" stroke="#1f4e79" points="629,-564 629,-589.5 656,-589.5 656,-564 629,-564"/>
<text xml:space="preserve" text-anchor="start" x="635" y="-573" font-family="Helvetica,sans-Serif" font-size="11.00" fill="#777777">PK</text>
<polygon fill="none" stroke="#1f4e79" points="514.25,-538.5 514.25,-564 629,-564 629,-538.5 514.25,-538.5"/>
<text xml:space="preserve" text-anchor="start" x="520.25" y="-547.5" font-family="Helvetica,sans-Serif" font-size="11.00">site_id</text>
<polygon fill="none" stroke="#1f4e79" points="629,-538.5 629,-564 656,-564 656,-538.5 629,-538.5"/>
<text xml:space="preserve" text-anchor="start" x="635.75" y="-547.5" font-family="Helvetica,sans-Serif" font-size="11.00" fill="#777777">FK</text>
<polygon fill="none" stroke="#1f4e79" points="514.25,-513 514.25,-538.5 629,-538.5 629,-513 514.25,-513"/>
<text xml:space="preserve" text-anchor="start" x="520.25" y="-522" font-family="Helvetica,sans-Serif" font-size="11.00">parameter_id</text>
<polygon fill="none" stroke="#1f4e79" points="629,-513 629,-538.5 656,-538.5 656,-513 629,-513"/>
<text xml:space="preserve" text-anchor="start" x="635.75" y="-522" font-family="Helvetica,sans-Serif" font-size="11.00" fill="#777777">FK</text>
<polygon fill="none" stroke="#1f4e79" points="514.25,-487.5 514.25,-513 629,-513 629,-487.5 514.25,-487.5"/>
<text xml:space="preserve" text-anchor="start" x="520.25" y="-496.5" font-family="Helvetica,sans-Serif" font-size="11.00">instrument_sensor_id</text>
<polygon fill="none" stroke="#1f4e79" points="629,-487.5 629,-513 656,-513 656,-487.5 629,-487.5"/>
<text xml:space="preserve" text-anchor="start" x="635.75" y="-496.5" font-family="Helvetica,sans-Serif" font-size="11.00" fill="#777777">FK</text>
</g>
<!-- site_parameters&#45;&gt;sites -->
<g id="edge22" class="edge">
<title>site_parameters:e&#45;&gt;sites:w</title>
<path fill="none" stroke="#8a8a8a" stroke-width="0.9" d="M664.15,-551.03C829.29,-540.77 597.47,-167.78 768.67,-163.05"/>
<polygon fill="#8a8a8a" stroke="#8a8a8a" stroke-width="0.9" points="664.3,-551.03 657.21,-548.09 660.5,-551.14 657.6,-551.23 657.6,-551.23 657.6,-551.23 660.5,-551.14 657.4,-554.39 664.3,-551.03"/>
<polygon fill="#8a8a8a" stroke="#8a8a8a" stroke-width="0.9" points="771.25,-159.51 771.35,-166.51 769.95,-166.53 769.85,-159.53 771.25,-159.51"/>
<polyline fill="none" stroke="#8a8a8a" stroke-width="0.9" points="772,-163 768.5,-163.05"/>
</g>
<!-- parameters -->
<g id="node5" class="node">
<title>parameters</title>
<polygon fill="#dbe7f3" stroke="none" points="788.75,-451.25 788.75,-476.75 860,-476.75 860,-451.25 788.75,-451.25"/>
<polygon fill="none" stroke="#1f4e79" points="788.75,-451.25 788.75,-476.75 860,-476.75 860,-451.25 788.75,-451.25"/>
<text xml:space="preserve" text-anchor="start" x="794.75" y="-461.3" font-family="Helvetica,sans-Serif" font-weight="bold" font-size="11.00">parameters</text>
<polygon fill="none" stroke="#1f4e79" points="788.75,-425.75 788.75,-451.25 821,-451.25 821,-425.75 788.75,-425.75"/>
<text xml:space="preserve" text-anchor="start" x="794.75" y="-434.75" font-family="Helvetica,sans-Serif" font-size="11.00">id</text>
<polygon fill="none" stroke="#1f4e79" points="821,-425.75 821,-451.25 860,-451.25 860,-425.75 821,-425.75"/>
<text xml:space="preserve" text-anchor="start" x="839" y="-434.75" font-family="Helvetica,sans-Serif" font-size="11.00" fill="#777777">PK</text>
</g>
<!-- site_parameters&#45;&gt;parameters -->
<g id="edge21" class="edge">
<title>site_parameters:e&#45;&gt;parameters:w</title>
<path fill="none" stroke="#8a8a8a" stroke-width="0.9" d="M664.08,-525.43C725.23,-519.82 720.53,-441.33 784.26,-438.57"/>
<polygon fill="#8a8a8a" stroke="#8a8a8a" stroke-width="0.9" points="664.29,-525.42 657.16,-522.59 660.5,-525.59 657.6,-525.72 657.6,-525.72 657.6,-525.72 660.5,-525.59 657.44,-528.88 664.29,-525.42"/>
<polygon fill="#8a8a8a" stroke="#8a8a8a" stroke-width="0.9" points="786.98,-435.02 787.12,-442.01 785.73,-442.04 785.58,-435.05 786.98,-435.02"/>
<polyline fill="none" stroke="#8a8a8a" stroke-width="0.9" points="787.75,-438.5 784.25,-438.57"/>
</g>
<!-- sensors -->
<g id="node10" class="node">
<title>sensors</title>
<polygon fill="#dbe7f3" stroke="none" points="797.38,-758.25 797.38,-783.75 851.38,-783.75 851.38,-758.25 797.38,-758.25"/>
<polygon fill="none" stroke="#1f4e79" points="797.38,-758.25 797.38,-783.75 851.38,-783.75 851.38,-758.25 797.38,-758.25"/>
<text xml:space="preserve" text-anchor="start" x="803.38" y="-768.3" font-family="Helvetica,sans-Serif" font-weight="bold" font-size="11.00">sensors</text>
<polygon fill="none" stroke="#1f4e79" points="797.38,-732.75 797.38,-758.25 821,-758.25 821,-732.75 797.38,-732.75"/>
<text xml:space="preserve" text-anchor="start" x="803.38" y="-741.75" font-family="Helvetica,sans-Serif" font-size="11.00">id</text>
<polygon fill="none" stroke="#1f4e79" points="821,-732.75 821,-758.25 851.38,-758.25 851.38,-732.75 821,-732.75"/>
<text xml:space="preserve" text-anchor="start" x="830.38" y="-741.75" font-family="Helvetica,sans-Serif" font-size="11.00" fill="#777777">PK</text>
</g>
<!-- site_parameters&#45;&gt;sensors -->
<g id="edge20" class="edge">
<title>site_parameters:e&#45;&gt;sensors:w</title>
<path fill="none" stroke="#8a8a8a" stroke-width="0.9" d="M664.08,-500.53C774.88,-509.48 679.2,-732.33 786.47,-744.94"/>
<polygon fill="#8a8a8a" stroke="#8a8a8a" stroke-width="0.9" points="664.3,-500.54 657.42,-497.11 660.5,-500.39 657.6,-500.27 657.6,-500.27 657.6,-500.27 660.5,-500.39 657.18,-503.41 664.3,-500.54"/>
<polygon fill="#8a8a8a" stroke="#8a8a8a" stroke-width="0.9" points="795.87,-741.97 795.48,-748.96 794.08,-748.88 794.47,-741.89 795.87,-741.97"/>
<polyline fill="none" stroke="#8a8a8a" stroke-width="0.9" points="796.38,-745.5 792.88,-745.3"/>
<ellipse fill="none" stroke="#8a8a8a" stroke-width="0.9" cx="789.64" cy="-745.12" rx="2.8" ry="2.8"/>
</g>
<!-- data_streams -->
<g id="node6" class="node">
<title>data_streams</title>
<polygon fill="#dbe7f3" stroke="none" points="272,-712.5 272,-738 397.25,-738 397.25,-712.5 272,-712.5"/>
<polygon fill="none" stroke="#1f4e79" points="272,-712.5 272,-738 397.25,-738 397.25,-712.5 272,-712.5"/>
<text xml:space="preserve" text-anchor="start" x="299.38" y="-722.55" font-family="Helvetica,sans-Serif" font-weight="bold" font-size="11.00">data_streams</text>
<polygon fill="none" stroke="#1f4e79" points="272,-687 272,-712.5 370.25,-712.5 370.25,-687 272,-687"/>
<text xml:space="preserve" text-anchor="start" x="278" y="-696" font-family="Helvetica,sans-Serif" font-size="11.00">id</text>
<polygon fill="none" stroke="#1f4e79" points="370.25,-687 370.25,-712.5 397.25,-712.5 397.25,-687 370.25,-687"/>
<text xml:space="preserve" text-anchor="start" x="376.25" y="-696" font-family="Helvetica,sans-Serif" font-size="11.00" fill="#777777">PK</text>
<polygon fill="none" stroke="#1f4e79" points="272,-661.5 272,-687 370.25,-687 370.25,-661.5 272,-661.5"/>
<text xml:space="preserve" text-anchor="start" x="278" y="-670.5" font-family="Helvetica,sans-Serif" font-size="11.00">site_parameter_id</text>
<polygon fill="none" stroke="#1f4e79" points="370.25,-661.5 370.25,-687 397.25,-687 397.25,-661.5 370.25,-661.5"/>
<text xml:space="preserve" text-anchor="start" x="377" y="-670.5" font-family="Helvetica,sans-Serif" font-size="11.00" fill="#777777">FK</text>
<polygon fill="none" stroke="#1f4e79" points="272,-636 272,-661.5 370.25,-661.5 370.25,-636 272,-636"/>
<text xml:space="preserve" text-anchor="start" x="278" y="-645" font-family="Helvetica,sans-Serif" font-size="11.00">sensor_id</text>
<polygon fill="none" stroke="#1f4e79" points="370.25,-636 370.25,-661.5 397.25,-661.5 397.25,-636 370.25,-636"/>
<text xml:space="preserve" text-anchor="start" x="377" y="-645" font-family="Helvetica,sans-Serif" font-size="11.00" fill="#777777">FK</text>
<polygon fill="none" stroke="#1f4e79" points="272,-610.5 272,-636 370.25,-636 370.25,-610.5 272,-610.5"/>
<text xml:space="preserve" text-anchor="start" x="278" y="-619.5" font-family="Helvetica,sans-Serif" font-size="11.00">pairing_plan_id</text>
<polygon fill="none" stroke="#1f4e79" points="370.25,-610.5 370.25,-636 397.25,-636 397.25,-610.5 370.25,-610.5"/>
<text xml:space="preserve" text-anchor="start" x="377" y="-619.5" font-family="Helvetica,sans-Serif" font-size="11.00" fill="#777777">FK</text>
</g>
<!-- data_streams&#45;&gt;site_parameters -->
<g id="edge3" class="edge">
<title>data_streams:e&#45;&gt;site_parameters:w</title>
<path fill="none" stroke="#8a8a8a" stroke-width="0.9" d="M405.36,-673.86C460.76,-667.51 450.17,-586.39 503.35,-577.53"/>
<polygon fill="#8a8a8a" stroke="#8a8a8a" stroke-width="0.9" points="405.54,-673.85 398.38,-671.09 401.74,-674.06 398.85,-674.22 398.85,-674.22 398.85,-674.22 401.74,-674.06 398.72,-677.38 405.54,-673.85"/>
<polygon fill="#8a8a8a" stroke="#8a8a8a" stroke-width="0.9" points="512.28,-573.32 512.83,-580.29 511.43,-580.4 510.88,-573.43 512.28,-573.32"/>
<polyline fill="none" stroke="#8a8a8a" stroke-width="0.9" points="513.25,-576.75 509.76,-577.03"/>
<ellipse fill="none" stroke="#8a8a8a" stroke-width="0.9" cx="506.52" cy="-577.28" rx="2.8" ry="2.8"/>
</g>
<!-- data_streams&#45;&gt;sensors -->
<g id="edge2" class="edge">
<title>data_streams:e&#45;&gt;sensors:w</title>
<path fill="none" stroke="#8a8a8a" stroke-width="0.9" d="M405.35,-648.99C508.64,-656.12 411.7,-822.7 506.25,-883.25 565.29,-921.06 599.5,-910.72 664,-883.25 738.91,-851.34 713.8,-753.95 786.49,-746.02"/>
<polygon fill="#8a8a8a" stroke="#8a8a8a" stroke-width="0.9" points="405.55,-648.99 398.66,-645.61 401.75,-648.87 398.85,-648.77 398.85,-648.77 398.85,-648.77 401.75,-648.87 398.45,-651.91 405.55,-648.99"/>
<polygon fill="#8a8a8a" stroke="#8a8a8a" stroke-width="0.9" points="795.49,-742.04 795.86,-749.03 794.46,-749.1 794.1,-742.11 795.49,-742.04"/>
<polyline fill="none" stroke="#8a8a8a" stroke-width="0.9" points="796.38,-745.5 792.88,-745.68"/>
<ellipse fill="none" stroke="#8a8a8a" stroke-width="0.9" cx="789.63" cy="-745.85" rx="2.8" ry="2.8"/>
</g>
<!-- readings -->
<g id="node7" class="node">
<title>readings</title>
<polygon fill="#dbe7f3" stroke="none" points="8,-533.75 8,-559.25 155,-559.25 155,-533.75 8,-533.75"/>
<polygon fill="none" stroke="#1f4e79" points="8,-533.75 8,-559.25 155,-559.25 155,-533.75 8,-533.75"/>
<text xml:space="preserve" text-anchor="start" x="58.62" y="-543.8" font-family="Helvetica,sans-Serif" font-weight="bold" font-size="11.00">readings</text>
<polygon fill="none" stroke="#1f4e79" points="8,-508.25 8,-533.75 110.75,-533.75 110.75,-508.25 8,-508.25"/>
<text xml:space="preserve" text-anchor="start" x="14" y="-517.25" font-family="Helvetica,sans-Serif" font-size="11.00">stream_id</text>
<polygon fill="none" stroke="#1f4e79" points="110.75,-508.25 110.75,-533.75 155,-533.75 155,-508.25 110.75,-508.25"/>
<text xml:space="preserve" text-anchor="start" x="116.75" y="-517.25" font-family="Helvetica,sans-Serif" font-size="11.00" fill="#777777">PK,FK</text>
<polygon fill="none" stroke="#1f4e79" points="8,-482.75 8,-508.25 110.75,-508.25 110.75,-482.75 8,-482.75"/>
<text xml:space="preserve" text-anchor="start" x="14" y="-491.75" font-family="Helvetica,sans-Serif" font-size="11.00">time</text>
<polygon fill="none" stroke="#1f4e79" points="110.75,-482.75 110.75,-508.25 155,-508.25 155,-482.75 110.75,-482.75"/>
<text xml:space="preserve" text-anchor="start" x="134" y="-491.75" font-family="Helvetica,sans-Serif" font-size="11.00" fill="#777777">PK</text>
<polygon fill="none" stroke="#1f4e79" points="8,-457.25 8,-482.75 110.75,-482.75 110.75,-457.25 8,-457.25"/>
<text xml:space="preserve" text-anchor="start" x="14" y="-466.25" font-family="Helvetica,sans-Serif" font-size="11.00">replicate_index</text>
<polygon fill="none" stroke="#1f4e79" points="110.75,-457.25 110.75,-482.75 155,-482.75 155,-457.25 110.75,-457.25"/>
<text xml:space="preserve" text-anchor="start" x="134" y="-466.25" font-family="Helvetica,sans-Serif" font-size="11.00" fill="#777777">PK</text>
<polygon fill="none" stroke="#1f4e79" points="8,-431.75 8,-457.25 110.75,-457.25 110.75,-431.75 8,-431.75"/>
<text xml:space="preserve" text-anchor="start" x="14" y="-440.75" font-family="Helvetica,sans-Serif" font-size="11.00">site_id</text>
<polygon fill="none" stroke="#1f4e79" points="110.75,-431.75 110.75,-457.25 155,-457.25 155,-431.75 110.75,-431.75"/>
<text xml:space="preserve" text-anchor="start" x="134.75" y="-440.75" font-family="Helvetica,sans-Serif" font-size="11.00" fill="#777777">FK</text>
<polygon fill="none" stroke="#1f4e79" points="8,-406.25 8,-431.75 110.75,-431.75 110.75,-406.25 8,-406.25"/>
<text xml:space="preserve" text-anchor="start" x="14" y="-415.25" font-family="Helvetica,sans-Serif" font-size="11.00">parameter_id</text>
<polygon fill="none" stroke="#1f4e79" points="110.75,-406.25 110.75,-431.75 155,-431.75 155,-406.25 110.75,-406.25"/>
<text xml:space="preserve" text-anchor="start" x="134.75" y="-415.25" font-family="Helvetica,sans-Serif" font-size="11.00" fill="#777777">FK</text>
<polygon fill="none" stroke="#1f4e79" points="8,-380.75 8,-406.25 110.75,-406.25 110.75,-380.75 8,-380.75"/>
<text xml:space="preserve" text-anchor="start" x="14" y="-389.75" font-family="Helvetica,sans-Serif" font-size="11.00">sensor_id</text>
<polygon fill="none" stroke="#1f4e79" points="110.75,-380.75 110.75,-406.25 155,-406.25 155,-380.75 110.75,-380.75"/>
<text xml:space="preserve" text-anchor="start" x="134.75" y="-389.75" font-family="Helvetica,sans-Serif" font-size="11.00" fill="#777777">FK</text>
<polygon fill="none" stroke="#1f4e79" points="8,-355.25 8,-380.75 110.75,-380.75 110.75,-355.25 8,-355.25"/>
<text xml:space="preserve" text-anchor="start" x="14" y="-364.25" font-family="Helvetica,sans-Serif" font-size="11.00">calibration_id</text>
<polygon fill="none" stroke="#1f4e79" points="110.75,-355.25 110.75,-380.75 155,-380.75 155,-355.25 110.75,-355.25"/>
<text xml:space="preserve" text-anchor="start" x="134.75" y="-364.25" font-family="Helvetica,sans-Serif" font-size="11.00" fill="#777777">FK</text>
<polygon fill="none" stroke="#1f4e79" points="8,-329.75 8,-355.25 110.75,-355.25 110.75,-329.75 8,-329.75"/>
<text xml:space="preserve" text-anchor="start" x="14" y="-338.75" font-family="Helvetica,sans-Serif" font-size="11.00">deployment_id</text>
<polygon fill="none" stroke="#1f4e79" points="110.75,-329.75 110.75,-355.25 155,-355.25 155,-329.75 110.75,-329.75"/>
<text xml:space="preserve" text-anchor="start" x="134.75" y="-338.75" font-family="Helvetica,sans-Serif" font-size="11.00" fill="#777777">FK</text>
<polygon fill="none" stroke="#1f4e79" points="8,-304.25 8,-329.75 110.75,-329.75 110.75,-304.25 8,-304.25"/>
<text xml:space="preserve" text-anchor="start" x="14" y="-313.25" font-family="Helvetica,sans-Serif" font-size="11.00">sample_id</text>
<polygon fill="none" stroke="#1f4e79" points="110.75,-304.25 110.75,-329.75 155,-329.75 155,-304.25 110.75,-304.25"/>
<text xml:space="preserve" text-anchor="start" x="134.75" y="-313.25" font-family="Helvetica,sans-Serif" font-size="11.00" fill="#777777">FK</text>
<polygon fill="none" stroke="#1f4e79" points="8,-278.75 8,-304.25 110.75,-304.25 110.75,-278.75 8,-278.75"/>
<text xml:space="preserve" text-anchor="start" x="14" y="-287.75" font-family="Helvetica,sans-Serif" font-size="11.00">standard_curve_id</text>
<polygon fill="none" stroke="#1f4e79" points="110.75,-278.75 110.75,-304.25 155,-304.25 155,-278.75 110.75,-278.75"/>
<text xml:space="preserve" text-anchor="start" x="134.75" y="-287.75" font-family="Helvetica,sans-Serif" font-size="11.00" fill="#777777">FK</text>
<polygon fill="none" stroke="#1f4e79" points="8,-253.25 8,-278.75 110.75,-278.75 110.75,-253.25 8,-253.25"/>
<text xml:space="preserve" text-anchor="start" x="14" y="-262.25" font-family="Helvetica,sans-Serif" font-size="11.00">collection_event_id</text>
<polygon fill="none" stroke="#1f4e79" points="110.75,-253.25 110.75,-278.75 155,-278.75 155,-253.25 110.75,-253.25"/>
<text xml:space="preserve" text-anchor="start" x="134.75" y="-262.25" font-family="Helvetica,sans-Serif" font-size="11.00" fill="#777777">FK</text>
</g>
<!-- readings&#45;&gt;sites -->
<g id="edge10" class="edge">
<title>readings:e&#45;&gt;sites:w</title>
<path fill="none" stroke="#8a8a8a" stroke-width="0.9" d="M163.11,-444.56C269.76,-446.23 320.79,-484.37 405.25,-415.25 517.06,-323.74 389.29,-191.07 506.25,-106.25 563.01,-65.09 595.93,-89.45 664,-106.25 713.25,-118.4 717.42,-157.49 762.15,-162.47"/>
<polygon fill="#8a8a8a" stroke="#8a8a8a" stroke-width="0.9" points="163.3,-444.56 156.33,-441.35 159.5,-444.53 156.6,-444.5 156.6,-444.5 156.6,-444.5 159.5,-444.53 156.28,-447.65 163.3,-444.56"/>
<polygon fill="#8a8a8a" stroke="#8a8a8a" stroke-width="0.9" points="771.49,-159.47 771.11,-166.46 769.72,-166.38 770.09,-159.39 771.49,-159.47"/>
<polyline fill="none" stroke="#8a8a8a" stroke-width="0.9" points="772,-163 768.5,-162.81"/>
<ellipse fill="none" stroke="#8a8a8a" stroke-width="0.9" cx="765.26" cy="-162.64" rx="2.8" ry="2.8"/>
</g>
<!-- readings&#45;&gt;parameters -->
<g id="edge7" class="edge">
<title>readings:e&#45;&gt;parameters:w</title>
<path fill="none" stroke="#8a8a8a" stroke-width="0.9" d="M163.34,-419.25C208.93,-422.51 215.22,-456.05 264,-466.25 325.45,-479.1 342.51,-468.52 405.25,-466.25 572.26,-460.2 615.62,-439.34 777.91,-438.52"/>
<polygon fill="#8a8a8a" stroke="#8a8a8a" stroke-width="0.9" points="163.3,-419.25 156.41,-415.86 159.5,-419.12 156.6,-419.02 156.6,-419.02 156.6,-419.02 159.5,-419.12 156.19,-422.16 163.3,-419.25"/>
<polygon fill="#8a8a8a" stroke="#8a8a8a" stroke-width="0.9" points="787.04,-435 787.06,-442 785.66,-442.01 785.64,-435.01 787.04,-435"/>
<polyline fill="none" stroke="#8a8a8a" stroke-width="0.9" points="787.75,-438.5 784.25,-438.51"/>
<ellipse fill="none" stroke="#8a8a8a" stroke-width="0.9" cx="781" cy="-438.52" rx="2.8" ry="2.8"/>
</g>
<!-- readings&#45;&gt;data_streams -->
<g id="edge12" class="edge">
<title>readings:e&#45;&gt;data_streams:w</title>
<path fill="none" stroke="#8a8a8a" stroke-width="0.9" d="M163.38,-521.39C245.49,-530.52 180.81,-695.48 267.58,-699.67"/>
<polygon fill="#8a8a8a" stroke="#8a8a8a" stroke-width="0.9" points="163.29,-521.39 156.47,-517.87 159.5,-521.19 156.6,-521.03 156.6,-521.03 156.6,-521.03 159.5,-521.19 156.13,-524.16 163.29,-521.39"/>
<polygon fill="#8a8a8a" stroke="#8a8a8a" stroke-width="0.9" points="270.38,-696.23 270.22,-703.23 268.82,-703.2 268.98,-696.2 270.38,-696.23"/>
<polyline fill="none" stroke="#8a8a8a" stroke-width="0.9" points="271,-699.75 267.5,-699.67"/>
</g>
<!-- samples -->
<g id="node8" class="node">
<title>samples</title>
<polygon fill="#dbe7f3" stroke="none" points="533.75,-200.75 533.75,-226.25 636.5,-226.25 636.5,-200.75 533.75,-200.75"/>
<polygon fill="none" stroke="#1f4e79" points="533.75,-200.75 533.75,-226.25 636.5,-226.25 636.5,-200.75 533.75,-200.75"/>
<text xml:space="preserve" text-anchor="start" x="563.38" y="-210.8" font-family="Helvetica,sans-Serif" font-weight="bold" font-size="11.00">samples</text>
<polygon fill="none" stroke="#1f4e79" points="533.75,-175.25 533.75,-200.75 609.5,-200.75 609.5,-175.25 533.75,-175.25"/>
<text xml:space="preserve" text-anchor="start" x="539.75" y="-184.25" font-family="Helvetica,sans-Serif" font-size="11.00">id</text>
<polygon fill="none" stroke="#1f4e79" points="609.5,-175.25 609.5,-200.75 636.5,-200.75 636.5,-175.25 609.5,-175.25"/>
<text xml:space="preserve" text-anchor="start" x="615.5" y="-184.25" font-family="Helvetica,sans-Serif" font-size="11.00" fill="#777777">PK</text>
<polygon fill="none" stroke="#1f4e79" points="533.75,-149.75 533.75,-175.25 609.5,-175.25 609.5,-149.75 533.75,-149.75"/>
<text xml:space="preserve" text-anchor="start" x="539.75" y="-158.75" font-family="Helvetica,sans-Serif" font-size="11.00">site_id</text>
<polygon fill="none" stroke="#1f4e79" points="609.5,-149.75 609.5,-175.25 636.5,-175.25 636.5,-149.75 609.5,-149.75"/>
<text xml:space="preserve" text-anchor="start" x="616.25" y="-158.75" font-family="Helvetica,sans-Serif" font-size="11.00" fill="#777777">FK</text>
<polygon fill="none" stroke="#1f4e79" points="533.75,-124.25 533.75,-149.75 609.5,-149.75 609.5,-124.25 533.75,-124.25"/>
<text xml:space="preserve" text-anchor="start" x="539.75" y="-133.25" font-family="Helvetica,sans-Serif" font-size="11.00">parameter_id</text>
<polygon fill="none" stroke="#1f4e79" points="609.5,-124.25 609.5,-149.75 636.5,-149.75 636.5,-124.25 609.5,-124.25"/>
<text xml:space="preserve" text-anchor="start" x="616.25" y="-133.25" font-family="Helvetica,sans-Serif" font-size="11.00" fill="#777777">FK</text>
</g>
<!-- readings&#45;&gt;samples -->
<g id="edge8" class="edge">
<title>readings:e&#45;&gt;samples:w</title>
<path fill="none" stroke="#8a8a8a" stroke-width="0.9" d="M163.16,-316.68C225.48,-310.84 201.59,-227.28 264,-198.25 369.31,-149.26 410.85,-185.8 522.78,-187.91"/>
<polygon fill="#8a8a8a" stroke="#8a8a8a" stroke-width="0.9" points="163.29,-316.67 156.16,-313.84 159.5,-316.84 156.6,-316.97 156.6,-316.97 156.6,-316.97 159.5,-316.84 156.44,-320.13 163.29,-316.67"/>
<polygon fill="#8a8a8a" stroke="#8a8a8a" stroke-width="0.9" points="532.08,-184.49 532.02,-191.49 530.62,-191.48 530.68,-184.48 532.08,-184.49"/>
<polyline fill="none" stroke="#8a8a8a" stroke-width="0.9" points="532.75,-188 529.25,-187.97"/>
<ellipse fill="none" stroke="#8a8a8a" stroke-width="0.9" cx="526" cy="-187.94" rx="2.8" ry="2.8"/>
</g>
<!-- collection_events -->
<g id="node9" class="node">
<title>collection_events</title>
<polygon fill="#dbe7f3" stroke="none" points="282.88,-55 282.88,-80.5 386.38,-80.5 386.38,-55 282.88,-55"/>
<polygon fill="none" stroke="#1f4e79" points="282.88,-55 282.88,-80.5 386.38,-80.5 386.38,-55 282.88,-55"/>
<text xml:space="preserve" text-anchor="start" x="288.88" y="-65.05" font-family="Helvetica,sans-Serif" font-weight="bold" font-size="11.00">collection_events</text>
<polygon fill="none" stroke="#1f4e79" points="282.88,-29.5 282.88,-55 342.5,-55 342.5,-29.5 282.88,-29.5"/>
<text xml:space="preserve" text-anchor="start" x="288.88" y="-38.5" font-family="Helvetica,sans-Serif" font-size="11.00">id</text>
<polygon fill="none" stroke="#1f4e79" points="342.5,-29.5 342.5,-55 386.38,-55 386.38,-29.5 342.5,-29.5"/>
<text xml:space="preserve" text-anchor="start" x="365.38" y="-38.5" font-family="Helvetica,sans-Serif" font-size="11.00" fill="#777777">PK</text>
<polygon fill="none" stroke="#1f4e79" points="282.88,-4 282.88,-29.5 342.5,-29.5 342.5,-4 282.88,-4"/>
<text xml:space="preserve" text-anchor="start" x="288.88" y="-13" font-family="Helvetica,sans-Serif" font-size="11.00">site_id</text>
<polygon fill="none" stroke="#1f4e79" points="342.5,-4 342.5,-29.5 386.38,-29.5 386.38,-4 342.5,-4"/>
<text xml:space="preserve" text-anchor="start" x="366.12" y="-13" font-family="Helvetica,sans-Serif" font-size="11.00" fill="#777777">FK</text>
</g>
<!-- readings&#45;&gt;collection_events -->
<g id="edge5" class="edge">
<title>readings:e&#45;&gt;collection_events:w</title>
<path fill="none" stroke="#8a8a8a" stroke-width="0.9" d="M163.37,-265.67C262.42,-256.36 176.1,-55.41 272.01,-42.86"/>
<polygon fill="#8a8a8a" stroke="#8a8a8a" stroke-width="0.9" points="163.29,-265.67 156.16,-262.84 159.5,-265.84 156.6,-265.97 156.6,-265.97 156.6,-265.97 159.5,-265.84 156.44,-269.13 163.29,-265.67"/>
<polygon fill="#8a8a8a" stroke="#8a8a8a" stroke-width="0.9" points="280.96,-38.8 281.39,-45.79 280,-45.87 279.56,-38.89 280.96,-38.8"/>
<polyline fill="none" stroke="#8a8a8a" stroke-width="0.9" points="281.88,-42.25 278.38,-42.47"/>
<ellipse fill="none" stroke="#8a8a8a" stroke-width="0.9" cx="275.14" cy="-42.67" rx="2.8" ry="2.8"/>
</g>
<!-- readings&#45;&gt;sensors -->
<g id="edge9" class="edge">
<title>readings:e&#45;&gt;sensors:w</title>
<path fill="none" stroke="#8a8a8a" stroke-width="0.9" d="M163.16,-394.98C211.91,-411.76 384.57,-565.92 405.25,-592.25 471.2,-676.23 416.26,-752.76 506.25,-810.25 565.33,-847.99 595.69,-826.06 664,-810.25 724.44,-796.26 730.39,-750.67 786.52,-745.9"/>
<polygon fill="#8a8a8a" stroke="#8a8a8a" stroke-width="0.9" points="163.15,-394.98 156.93,-390.48 159.43,-394.21 156.59,-393.62 156.59,-393.62 156.59,-393.62 159.43,-394.21 155.66,-396.65 163.15,-394.98"/>
<polygon fill="#8a8a8a" stroke="#8a8a8a" stroke-width="0.9" points="795.53,-742.03 795.82,-749.03 794.42,-749.08 794.13,-742.09 795.53,-742.03"/>
<polyline fill="none" stroke="#8a8a8a" stroke-width="0.9" points="796.38,-745.5 792.88,-745.64"/>
<ellipse fill="none" stroke="#8a8a8a" stroke-width="0.9" cx="789.63" cy="-745.78" rx="2.8" ry="2.8"/>
</g>
<!-- sensor_deployments -->
<g id="node11" class="node">
<title>sensor_deployments</title>
<polygon fill="#dbe7f3" stroke="none" points="524.38,-365.5 524.38,-391 645.88,-391 645.88,-365.5 524.38,-365.5"/>
<polygon fill="none" stroke="#1f4e79" points="524.38,-365.5 524.38,-391 645.88,-391 645.88,-365.5 524.38,-365.5"/>
<text xml:space="preserve" text-anchor="start" x="530.38" y="-375.55" font-family="Helvetica,sans-Serif" font-weight="bold" font-size="11.00">sensor_deployments</text>
<polygon fill="none" stroke="#1f4e79" points="524.38,-340 524.38,-365.5 609.5,-365.5 609.5,-340 524.38,-340"/>
<text xml:space="preserve" text-anchor="start" x="530.38" y="-349" font-family="Helvetica,sans-Serif" font-size="11.00">id</text>
<polygon fill="none" stroke="#1f4e79" points="609.5,-340 609.5,-365.5 645.88,-365.5 645.88,-340 609.5,-340"/>
<text xml:space="preserve" text-anchor="start" x="624.88" y="-349" font-family="Helvetica,sans-Serif" font-size="11.00" fill="#777777">PK</text>
<polygon fill="none" stroke="#1f4e79" points="524.38,-314.5 524.38,-340 609.5,-340 609.5,-314.5 524.38,-314.5"/>
<text xml:space="preserve" text-anchor="start" x="530.38" y="-323.5" font-family="Helvetica,sans-Serif" font-size="11.00">sensor_id</text>
<polygon fill="none" stroke="#1f4e79" points="609.5,-314.5 609.5,-340 645.88,-340 645.88,-314.5 609.5,-314.5"/>
<text xml:space="preserve" text-anchor="start" x="625.62" y="-323.5" font-family="Helvetica,sans-Serif" font-size="11.00" fill="#777777">FK</text>
<polygon fill="none" stroke="#1f4e79" points="524.38,-289 524.38,-314.5 609.5,-314.5 609.5,-289 524.38,-289"/>
<text xml:space="preserve" text-anchor="start" x="530.38" y="-298" font-family="Helvetica,sans-Serif" font-size="11.00">site_id</text>
<polygon fill="none" stroke="#1f4e79" points="609.5,-289 609.5,-314.5 645.88,-314.5 645.88,-289 609.5,-289"/>
<text xml:space="preserve" text-anchor="start" x="625.62" y="-298" font-family="Helvetica,sans-Serif" font-size="11.00" fill="#777777">FK</text>
<polygon fill="none" stroke="#1f4e79" points="524.38,-263.5 524.38,-289 609.5,-289 609.5,-263.5 524.38,-263.5"/>
<text xml:space="preserve" text-anchor="start" x="530.38" y="-272.5" font-family="Helvetica,sans-Serif" font-size="11.00">parameter_id</text>
<polygon fill="none" stroke="#1f4e79" points="609.5,-263.5 609.5,-289 645.88,-289 645.88,-263.5 609.5,-263.5"/>
<text xml:space="preserve" text-anchor="start" x="625.62" y="-272.5" font-family="Helvetica,sans-Serif" font-size="11.00" fill="#777777">FK</text>
</g>
<!-- readings&#45;&gt;sensor_deployments -->
<g id="edge6" class="edge">
<title>readings:e&#45;&gt;sensor_deployments:w</title>
<path fill="none" stroke="#8a8a8a" stroke-width="0.9" d="M163.15,-342.17C225.3,-336.28 201.16,-251.96 264,-224.25 321.44,-198.92 347.77,-199.01 405.25,-224.25 473.09,-254.04 448.33,-344.14 513.56,-352.18"/>
<polygon fill="#8a8a8a" stroke="#8a8a8a" stroke-width="0.9" points="163.29,-342.17 156.16,-339.34 159.5,-342.34 156.6,-342.47 156.6,-342.47 156.6,-342.47 159.5,-342.34 156.44,-345.63 163.29,-342.17"/>
<polygon fill="#8a8a8a" stroke="#8a8a8a" stroke-width="0.9" points="522.88,-349.22 522.47,-356.2 521.07,-356.12 521.48,-349.13 522.88,-349.22"/>
<polyline fill="none" stroke="#8a8a8a" stroke-width="0.9" points="523.38,-352.75 519.88,-352.55"/>
<ellipse fill="none" stroke="#8a8a8a" stroke-width="0.9" cx="516.64" cy="-352.36" rx="2.8" ry="2.8"/>
</g>
<!-- sensor_calibrations -->
<g id="node12" class="node">
<title>sensor_calibrations</title>
<polygon fill="#dbe7f3" stroke="none" points="527.38,-728.75 527.38,-754.25 642.88,-754.25 642.88,-728.75 527.38,-728.75"/>
<polygon fill="none" stroke="#1f4e79" points="527.38,-728.75 527.38,-754.25 642.88,-754.25 642.88,-728.75 527.38,-728.75"/>
<text xml:space="preserve" text-anchor="start" x="533.38" y="-738.8" font-family="Helvetica,sans-Serif" font-weight="bold" font-size="11.00">sensor_calibrations</text>
<polygon fill="none" stroke="#1f4e79" points="527.38,-703.25 527.38,-728.75 609.5,-728.75 609.5,-703.25 527.38,-703.25"/>
<text xml:space="preserve" text-anchor="start" x="533.38" y="-712.25" font-family="Helvetica,sans-Serif" font-size="11.00">id</text>
<polygon fill="none" stroke="#1f4e79" points="609.5,-703.25 609.5,-728.75 642.88,-728.75 642.88,-703.25 609.5,-703.25"/>
<text xml:space="preserve" text-anchor="start" x="621.88" y="-712.25" font-family="Helvetica,sans-Serif" font-size="11.00" fill="#777777">PK</text>
<polygon fill="none" stroke="#1f4e79" points="527.38,-677.75 527.38,-703.25 609.5,-703.25 609.5,-677.75 527.38,-677.75"/>
<text xml:space="preserve" text-anchor="start" x="533.38" y="-686.75" font-family="Helvetica,sans-Serif" font-size="11.00">sensor_id</text>
<polygon fill="none" stroke="#1f4e79" points="609.5,-677.75 609.5,-703.25 642.88,-703.25 642.88,-677.75 609.5,-677.75"/>
<text xml:space="preserve" text-anchor="start" x="622.62" y="-686.75" font-family="Helvetica,sans-Serif" font-size="11.00" fill="#777777">FK</text>
<polygon fill="none" stroke="#1f4e79" points="527.38,-652.25 527.38,-677.75 609.5,-677.75 609.5,-652.25 527.38,-652.25"/>
<text xml:space="preserve" text-anchor="start" x="533.38" y="-661.25" font-family="Helvetica,sans-Serif" font-size="11.00">parameter_id</text>
<polygon fill="none" stroke="#1f4e79" points="609.5,-652.25 609.5,-677.75 642.88,-677.75 642.88,-652.25 609.5,-652.25"/>
<text xml:space="preserve" text-anchor="start" x="622.62" y="-661.25" font-family="Helvetica,sans-Serif" font-size="11.00" fill="#777777">FK</text>
</g>
<!-- readings&#45;&gt;sensor_calibrations -->
<g id="edge4" class="edge">
<title>readings:e&#45;&gt;sensor_calibrations:w</title>
<path fill="none" stroke="#8a8a8a" stroke-width="0.9" d="M163.37,-367.65C217.95,-362.34 207.31,-297.08 264,-276.25 322.93,-254.6 355.31,-238.21 405.25,-276.25 563.83,-397.06 331.6,-705.53 516.64,-715.74"/>
<polygon fill="#8a8a8a" stroke="#8a8a8a" stroke-width="0.9" points="163.29,-367.66 156.15,-364.84 159.5,-367.84 156.6,-367.97 156.6,-367.97 156.6,-367.97 159.5,-367.84 156.45,-371.13 163.29,-367.66"/>
<polygon fill="#8a8a8a" stroke="#8a8a8a" stroke-width="0.9" points="525.77,-712.48 525.58,-719.48 524.18,-719.44 524.37,-712.45 525.77,-712.48"/>
<polyline fill="none" stroke="#8a8a8a" stroke-width="0.9" points="526.38,-716 522.88,-715.91"/>
<ellipse fill="none" stroke="#8a8a8a" stroke-width="0.9" cx="519.63" cy="-715.82" rx="2.8" ry="2.8"/>
</g>
<!-- standard_curves -->
<g id="node13" class="node">
<title>standard_curves</title>
<polygon fill="#dbe7f3" stroke="none" points="278.38,-370.75 278.38,-396.25 390.88,-396.25 390.88,-370.75 278.38,-370.75"/>
<polygon fill="none" stroke="#1f4e79" points="278.38,-370.75 278.38,-396.25 390.88,-396.25 390.88,-370.75 278.38,-370.75"/>
<text xml:space="preserve" text-anchor="start" x="290.75" y="-380.8" font-family="Helvetica,sans-Serif" font-weight="bold" font-size="11.00">standard_curves</text>
<polygon fill="none" stroke="#1f4e79" points="278.38,-345.25 278.38,-370.75 363.88,-370.75 363.88,-345.25 278.38,-345.25"/>
<text xml:space="preserve" text-anchor="start" x="284.38" y="-354.25" font-family="Helvetica,sans-Serif" font-size="11.00">id</text>
<polygon fill="none" stroke="#1f4e79" points="363.88,-345.25 363.88,-370.75 390.88,-370.75 390.88,-345.25 363.88,-345.25"/>
<text xml:space="preserve" text-anchor="start" x="369.88" y="-354.25" font-family="Helvetica,sans-Serif" font-size="11.00" fill="#777777">PK</text>
<polygon fill="none" stroke="#1f4e79" points="278.38,-319.75 278.38,-345.25 363.88,-345.25 363.88,-319.75 278.38,-319.75"/>
<text xml:space="preserve" text-anchor="start" x="284.38" y="-328.75" font-family="Helvetica,sans-Serif" font-size="11.00">sensor_id</text>
<polygon fill="none" stroke="#1f4e79" points="363.88,-319.75 363.88,-345.25 390.88,-345.25 390.88,-319.75 363.88,-319.75"/>
<text xml:space="preserve" text-anchor="start" x="370.62" y="-328.75" font-family="Helvetica,sans-Serif" font-size="11.00" fill="#777777">FK</text>
<polygon fill="none" stroke="#1f4e79" points="278.38,-294.25 278.38,-319.75 363.88,-319.75 363.88,-294.25 278.38,-294.25"/>
<text xml:space="preserve" text-anchor="start" x="284.38" y="-303.25" font-family="Helvetica,sans-Serif" font-size="11.00">copied_from_id</text>
<polygon fill="none" stroke="#1f4e79" points="363.88,-294.25 363.88,-319.75 390.88,-319.75 390.88,-294.25 363.88,-294.25"/>
<text xml:space="preserve" text-anchor="start" x="370.62" y="-303.25" font-family="Helvetica,sans-Serif" font-size="11.00" fill="#777777">FK</text>
</g>
<!-- readings&#45;&gt;standard_curves -->
<g id="edge11" class="edge">
<title>readings:e&#45;&gt;standard_curves:w</title>
<path fill="none" stroke="#8a8a8a" stroke-width="0.9" d="M163.26,-291.83C214.3,-296.55 218.1,-351.03 267.58,-357.39"/>
<polygon fill="#8a8a8a" stroke="#8a8a8a" stroke-width="0.9" points="163.29,-291.83 156.44,-288.37 159.5,-291.66 156.6,-291.53 156.6,-291.53 156.6,-291.53 159.5,-291.66 156.16,-294.66 163.29,-291.83"/>
<polygon fill="#8a8a8a" stroke="#8a8a8a" stroke-width="0.9" points="276.89,-354.46 276.46,-361.45 275.06,-361.36 275.5,-354.38 276.89,-354.46"/>
<polyline fill="none" stroke="#8a8a8a" stroke-width="0.9" points="277.38,-358 273.88,-357.78"/>
<ellipse fill="none" stroke="#8a8a8a" stroke-width="0.9" cx="270.64" cy="-357.58" rx="2.8" ry="2.8"/>
</g>
<!-- samples&#45;&gt;sites -->
<g id="edge14" class="edge">
<title>samples:e&#45;&gt;sites:w</title>
<path fill="none" stroke="#8a8a8a" stroke-width="0.9" d="M644.64,-162.5C697.53,-162.54 714.03,-162.98 768.69,-163"/>
<polygon fill="#8a8a8a" stroke="#8a8a8a" stroke-width="0.9" points="644.8,-162.5 637.8,-159.35 641,-162.5 638.1,-162.5 638.1,-162.5 638.1,-162.5 641,-162.5 637.8,-165.65 644.8,-162.5"/>
<polygon fill="#8a8a8a" stroke="#8a8a8a" stroke-width="0.9" points="771.3,-159.5 771.3,-166.5 769.9,-166.5 769.9,-159.5 771.3,-159.5"/>
<polyline fill="none" stroke="#8a8a8a" stroke-width="0.9" points="772,-163 768.5,-163"/>
</g>
<!-- samples&#45;&gt;parameters -->
<g id="edge13" class="edge">
<title>samples:e&#45;&gt;parameters:w</title>
<path fill="none" stroke="#8a8a8a" stroke-width="0.9" d="M644.71,-137.25C781.27,-146.85 642.72,-433.96 784.35,-438.45"/>
<polygon fill="#8a8a8a" stroke="#8a8a8a" stroke-width="0.9" points="644.8,-137.25 637.91,-133.86 641,-137.12 638.1,-137.02 638.1,-137.02 638.1,-137.02 641,-137.12 637.69,-140.16 644.8,-137.25"/>
<polygon fill="#8a8a8a" stroke="#8a8a8a" stroke-width="0.9" points="787.1,-434.99 787,-441.99 785.6,-441.97 785.71,-434.97 787.1,-434.99"/>
<polyline fill="none" stroke="#8a8a8a" stroke-width="0.9" points="787.75,-438.5 784.25,-438.45"/>
</g>
<!-- collection_events&#45;&gt;sites -->
<g id="edge1" class="edge">
<title>collection_events:e&#45;&gt;sites:w</title>
<path fill="none" stroke="#8a8a8a" stroke-width="0.9" d="M394.55,-16.73C513.09,-16.08 555.1,-0.05 664,-54.25 724.03,-84.13 704.52,-160.56 768.87,-162.94"/>
<polygon fill="#8a8a8a" stroke="#8a8a8a" stroke-width="0.9" points="394.68,-16.73 387.67,-13.6 390.87,-16.74 387.98,-16.75 387.98,-16.75 387.98,-16.75 390.87,-16.74 387.68,-19.9 394.68,-16.73"/>
<polygon fill="#8a8a8a" stroke="#8a8a8a" stroke-width="0.9" points="771.36,-159.49 771.24,-166.49 769.84,-166.46 769.96,-159.46 771.36,-159.49"/>
<polyline fill="none" stroke="#8a8a8a" stroke-width="0.9" points="772,-163 768.5,-162.94"/>
</g>
<!-- sensor_deployments&#45;&gt;sites -->
<g id="edge19" class="edge">
<title>sensor_deployments:e&#45;&gt;sites:w</title>
<path fill="none" stroke="#8a8a8a" stroke-width="0.9" d="M653.86,-301.4C726.61,-293.84 692.36,-166.55 768.76,-163.07"/>
<polygon fill="#8a8a8a" stroke="#8a8a8a" stroke-width="0.9" points="654.17,-301.38 647.02,-298.59 650.37,-301.57 647.48,-301.72 647.48,-301.72 647.48,-301.72 650.37,-301.57 647.33,-304.88 654.17,-301.38"/>
<polygon fill="#8a8a8a" stroke="#8a8a8a" stroke-width="0.9" points="771.22,-159.52 771.38,-166.51 769.98,-166.55 769.82,-159.55 771.22,-159.52"/>
<polyline fill="none" stroke="#8a8a8a" stroke-width="0.9" points="772,-163 768.5,-163.08"/>
</g>
<!-- sensor_deployments&#45;&gt;parameters -->
<g id="edge17" class="edge">
<title>sensor_deployments:e&#45;&gt;parameters:w</title>
<path fill="none" stroke="#8a8a8a" stroke-width="0.9" d="M654.13,-276.58C738.74,-284.59 695.89,-434.62 784.27,-438.43"/>
<polygon fill="#8a8a8a" stroke="#8a8a8a" stroke-width="0.9" points="654.17,-276.58 647.32,-273.12 650.37,-276.41 647.48,-276.28 647.48,-276.28 647.48,-276.28 650.37,-276.41 647.03,-279.41 654.17,-276.58"/>
<polygon fill="#8a8a8a" stroke="#8a8a8a" stroke-width="0.9" points="787.12,-434.99 786.98,-441.98 785.58,-441.95 785.72,-434.96 787.12,-434.99"/>
<polyline fill="none" stroke="#8a8a8a" stroke-width="0.9" points="787.75,-438.5 784.25,-438.43"/>
</g>
<!-- sensor_deployments&#45;&gt;sensors -->
<g id="edge18" class="edge">
<title>sensor_deployments:e&#45;&gt;sensors:w</title>
<path fill="none" stroke="#8a8a8a" stroke-width="0.9" d="M654.18,-327.45C837.05,-337.74 604.23,-740.74 792.99,-745.46"/>
<polygon fill="#8a8a8a" stroke="#8a8a8a" stroke-width="0.9" points="654.17,-327.45 647.26,-324.11 650.37,-327.35 647.48,-327.27 647.48,-327.27 647.48,-327.27 650.37,-327.35 647.09,-330.41 654.17,-327.45"/>
<polygon fill="#8a8a8a" stroke="#8a8a8a" stroke-width="0.9" points="795.72,-741.99 795.63,-748.99 794.23,-748.97 794.32,-741.97 795.72,-741.99"/>
<polyline fill="none" stroke="#8a8a8a" stroke-width="0.9" points="796.38,-745.5 792.88,-745.46"/>
</g>
<!-- sensor_calibrations&#45;&gt;parameters -->
<g id="edge15" class="edge">
<title>sensor_calibrations:e&#45;&gt;parameters:w</title>
<path fill="none" stroke="#8a8a8a" stroke-width="0.9" d="M650.95,-664.72C756.17,-656.07 675.95,-451.05 778,-439.05"/>
<polygon fill="#8a8a8a" stroke="#8a8a8a" stroke-width="0.9" points="651.17,-664.71 644.05,-661.84 647.37,-664.86 644.48,-664.98 644.48,-664.98 644.48,-664.98 647.37,-664.86 644.3,-668.14 651.17,-664.71"/>
<polygon fill="#8a8a8a" stroke="#8a8a8a" stroke-width="0.9" points="786.85,-435.04 787.25,-442.03 785.85,-442.11 785.46,-435.12 786.85,-435.04"/>
<polyline fill="none" stroke="#8a8a8a" stroke-width="0.9" points="787.75,-438.5 784.26,-438.7"/>
<ellipse fill="none" stroke="#8a8a8a" stroke-width="0.9" cx="781.01" cy="-438.88" rx="2.8" ry="2.8"/>
</g>
<!-- sensor_calibrations&#45;&gt;sensors -->
<g id="edge16" class="edge">
<title>sensor_calibrations:e&#45;&gt;sensors:w</title>
<path fill="none" stroke="#8a8a8a" stroke-width="0.9" d="M651.24,-690.7C715.57,-694.24 726.52,-743.91 793.16,-745.46"/>
<polygon fill="#8a8a8a" stroke="#8a8a8a" stroke-width="0.9" points="651.17,-690.7 644.26,-687.36 647.37,-690.59 644.48,-690.52 644.48,-690.52 644.48,-690.52 647.37,-690.59 644.09,-693.66 651.17,-690.7"/>
<polygon fill="#8a8a8a" stroke="#8a8a8a" stroke-width="0.9" points="795.72,-741.99 795.63,-748.99 794.23,-748.98 794.32,-741.98 795.72,-741.99"/>
<polyline fill="none" stroke="#8a8a8a" stroke-width="0.9" points="796.38,-745.5 792.88,-745.46"/>
</g>
<!-- standard_curves&#45;&gt;sensors -->
<g id="edge26" class="edge">
<title>standard_curves:e&#45;&gt;sensors:w</title>
<path fill="none" stroke="#8a8a8a" stroke-width="0.9" d="M399.09,-332.64C588.26,-340.21 348.14,-650.93 506.25,-773.25 607.8,-851.81 665.82,-747.37 792.98,-745.52"/>
<polygon fill="#8a8a8a" stroke="#8a8a8a" stroke-width="0.9" points="399.17,-332.64 392.24,-329.36 395.37,-332.57 392.48,-332.51 392.48,-332.51 392.48,-332.51 395.37,-332.57 392.11,-335.66 399.17,-332.64"/>
<polygon fill="#8a8a8a" stroke="#8a8a8a" stroke-width="0.9" points="795.65,-742.01 795.7,-749 794.3,-749.02 794.25,-742.02 795.65,-742.01"/>
<polyline fill="none" stroke="#8a8a8a" stroke-width="0.9" points="796.38,-745.5 792.88,-745.53"/>
</g>
<!-- standard_curves&#45;&gt;standard_curves -->
<g id="edge25" class="edge">
<title>standard_curves:copied_from_id__l&#45;&gt;standard_curves:id__l</title>
<path fill="none" stroke="#8a8a8a" stroke-width="0.9" d="M288.55,-290.5C261.62,-272.92 272.48,-261.25 321.12,-261.25 372.05,-261.25 381.57,-306.72 349.66,-338.76"/>
<polygon fill="#8a8a8a" stroke="#8a8a8a" stroke-width="0.9" points="288.63,-290.55 292.98,-296.88 291.88,-292.53 294.35,-294.03 294.35,-294.03 294.35,-294.03 291.88,-292.53 296.25,-291.5 288.63,-290.55"/>
<polygon fill="#8a8a8a" stroke="#8a8a8a" stroke-width="0.9" points="345.07,-347.53 340.42,-342.29 341.47,-341.36 346.12,-346.6 345.07,-347.53"/>
<polyline fill="none" stroke="#8a8a8a" stroke-width="0.9" points="342.22,-345.38 344.84,-343.05"/>
<ellipse fill="none" stroke="#8a8a8a" stroke-width="0.9" cx="347.27" cy="-340.89" rx="2.8" ry="2.8"/>
</g>
</g>
</svg>
